<svg version="1.1" id="Layer_1" xmlns="http://www.w3.org/2000/svg" xmlns:xlink="http://www.w3.org/1999/xlink" x="0px" y="0px"
	 width="100%" viewBox="0 0 1385 269" enable-background="new 0 0 1385 269" xml:space="preserve">
<path fill="#010000" opacity="1.000000" stroke="none" 
	d="
M1024.000000,270.000000 
	C682.666687,270.000000 341.833405,270.000000 1.000092,270.000000 
	C1.000061,180.333389 1.000061,90.666771 1.000031,1.000116 
	C462.666534,1.000077 924.333069,1.000077 1385.999756,1.000039 
	C1385.999756,90.666542 1385.999756,180.333084 1385.999878,269.999817 
	C1265.500000,270.000000 1145.000000,270.000000 1024.000000,270.000000 
M389.974365,211.973038 
	C389.974365,211.973038 389.947540,212.057571 390.693298,212.166321 
	C390.813171,211.763885 390.933044,211.361450 390.978729,210.971954 
	C390.978729,210.971954 390.962738,211.045532 391.561127,211.550125 
	C397.386505,207.826614 399.472229,201.952942 400.663025,195.599365 
	C402.456360,186.030640 404.192688,176.451187 406.035065,166.431168 
	C399.227386,165.629532 393.052368,165.352325 386.829803,169.565170 
	C375.588165,178.288925 373.172424,189.317169 377.412903,197.343933 
	C375.056061,199.478500 372.438202,201.348984 370.460327,203.747253 
	C366.613678,208.411667 368.015839,213.075485 373.695496,215.056488 
	C378.432495,216.708694 383.130981,216.560760 387.961182,213.999832 
	C388.297272,213.858612 388.633331,213.717392 389.553284,213.149445 
	C389.721069,212.746246 389.888855,212.343048 389.974365,211.973038 
M876.179382,167.800385 
	C869.628540,171.469559 865.114258,176.767929 863.991150,184.312943 
	C862.519775,194.198410 868.444519,198.962616 878.689209,195.804901 
	C885.394775,192.673172 889.957642,187.571625 891.765625,180.426956 
	C892.878601,176.029099 893.085022,171.403412 888.965332,168.064529 
	C885.099548,164.931473 880.982971,165.553818 876.179382,167.800385 
M1132.689331,195.804886 
	C1139.395020,192.673126 1143.957764,187.571381 1145.765625,180.426697 
	C1146.878540,176.028870 1147.084961,171.402969 1142.965088,168.064285 
	C1139.099365,164.931564 1134.982666,165.553482 1130.179077,167.800583 
	C1123.628296,171.469757 1119.114258,176.768204 1117.991333,184.313156 
	C1116.520020,194.198349 1122.444702,198.962540 1132.689331,195.804886 
M641.493469,177.946182 
	C641.777039,174.165543 645.051941,169.641647 641.005981,166.827774 
	C636.898987,163.971466 633.287964,167.754852 629.882935,170.018143 
	C629.720398,170.126190 629.722961,170.482758 629.535889,171.089066 
	C631.937500,170.332581 634.115906,169.646393 637.622620,168.541794 
	C635.574097,178.677979 633.786133,187.524765 631.931335,196.702362 
	C633.881592,196.702362 635.612366,196.702362 636.905701,196.702362 
	C638.759338,191.608459 640.495667,186.836807 642.779785,181.705200 
	C645.598206,178.195450 648.416626,174.685715 651.949341,170.937851 
	C656.137146,168.760422 656.605286,171.181503 656.029114,174.405289 
	C655.008057,180.118073 653.590271,185.765640 652.725586,191.498871 
	C652.047607,195.993774 654.711670,198.048340 659.048462,196.598419 
	C660.764832,196.024567 662.283813,194.859955 663.892639,193.964340 
	C663.772522,193.737427 663.652466,193.510529 663.532349,193.283630 
	C661.998901,193.423538 660.465454,193.563446 658.287842,193.762131 
	C658.546875,191.518066 658.643433,189.757416 658.968323,188.039963 
	C659.923889,182.989044 661.256470,177.987915 661.837158,172.898361 
	C662.063171,170.917130 661.269165,167.839157 659.858582,166.919846 
	C658.367554,165.948166 655.514221,166.661469 653.399536,167.201141 
	C652.088562,167.535690 651.044739,168.917130 649.273315,170.121002 
	C646.591858,172.949890 643.910461,175.778793 641.493469,177.946182 
M1292.779663,181.705338 
	C1295.598145,178.195557 1298.416626,174.685776 1301.949463,170.937775 
	C1306.137451,168.760269 1306.605103,171.181931 1306.029175,174.405334 
	C1305.008179,180.118103 1303.590210,185.765610 1302.725464,191.498779 
	C1302.047485,195.993790 1304.711548,198.048386 1309.048340,196.598465 
	C1310.764893,196.024612 1312.283813,194.860001 1313.892700,193.964386 
	C1313.772583,193.737457 1313.652588,193.510544 1313.532471,193.283630 
	C1311.999023,193.423553 1310.465576,193.563492 1308.287842,193.762207 
	C1308.546265,191.522919 1308.643188,189.759888 1308.968506,188.040054 
	C1309.923828,182.989120 1311.256226,177.988022 1311.837036,172.898499 
	C1312.063110,170.917236 1311.269287,167.839310 1309.858765,166.919846 
	C1308.367920,165.948074 1305.514404,166.661423 1303.399780,167.201050 
	C1302.088867,167.535599 1301.044922,168.916977 1299.273438,170.120834 
	C1296.591919,172.949860 1293.910522,175.778900 1291.493408,177.946396 
	C1291.776978,174.165741 1295.052002,169.641815 1291.006226,166.827835 
	C1286.899292,163.971313 1283.288086,167.754654 1279.883179,170.017975 
	C1279.720459,170.126160 1279.723022,170.482712 1279.535645,171.089493 
	C1281.941040,170.331543 1284.115356,169.646484 1287.621582,168.541672 
	C1285.573486,178.677689 1283.785767,187.524536 1281.931152,196.702271 
	C1283.881348,196.702271 1285.612183,196.702271 1286.905884,196.702271 
	C1288.759888,191.607147 1290.495972,186.836212 1292.779663,181.705338 
M1046.596313,190.703995 
	C1051.378174,184.955048 1056.367798,179.358994 1060.791382,173.346390 
	C1061.856934,171.897964 1061.494385,168.923309 1060.851807,166.956558 
	C1060.632202,166.284286 1057.545654,166.548676 1055.768799,166.385132 
	C1056.166138,166.787216 1056.563477,167.189301 1056.960693,167.591385 
	C1055.859009,171.208771 1055.310547,175.132843 1053.517578,178.367004 
	C1051.205811,182.536682 1047.897827,186.154053 1044.260254,189.612106 
	C1043.319824,183.744186 1043.046997,177.664825 1041.272095,172.061172 
	C1038.981812,164.829681 1033.128662,164.066040 1027.358887,169.941727 
	C1033.975464,168.996689 1036.022217,173.140579 1037.120239,178.184570 
	C1037.683105,180.770065 1038.073608,183.409439 1038.311768,186.045288 
	C1038.631714,189.584564 1038.728882,193.143951 1038.921753,196.694717 
	C1039.332520,196.891083 1039.743164,197.087463 1040.153931,197.283829 
	C1042.106812,195.198547 1044.059692,193.113251 1046.596313,190.703995 
M1203.440674,177.325592 
	C1199.073242,178.650894 1202.481323,175.494629 1202.288086,174.838379 
	C1201.507690,172.187439 1201.391602,169.340881 1201.030396,166.566544 
	C1198.085327,167.155304 1195.103760,167.611282 1192.214966,168.404709 
	C1191.200195,168.683380 1190.412842,169.790054 1189.521729,170.518677 
	C1189.640869,170.701340 1189.760010,170.884018 1189.879272,171.066681 
	C1191.945068,170.336960 1194.010864,169.607239 1197.633545,168.327530 
	C1195.588135,178.362686 1193.799316,187.138367 1192.010498,195.914047 
	C1192.392090,196.350754 1192.773560,196.787476 1193.155151,197.224182 
	C1194.806396,196.070038 1197.161377,195.279160 1197.979248,193.694794 
	C1200.603516,188.611282 1202.659180,183.234299 1205.465088,177.563293 
	C1208.257812,174.843262 1211.050659,172.123230 1213.843384,169.403198 
	C1214.512695,169.832001 1215.182129,170.260803 1215.851440,170.689606 
	C1214.288818,179.071777 1212.726196,187.453964 1211.151978,195.898758 
	C1214.587769,197.089294 1216.254028,196.569962 1217.345459,192.684662 
	C1218.755615,187.664688 1221.399780,182.991364 1223.968506,177.720932 
	C1226.648438,174.559418 1228.666504,170.514740 1234.798340,169.874710 
	C1233.701050,175.875168 1232.680176,181.140854 1231.791626,186.428818 
	C1231.213867,189.867126 1228.751587,194.591980 1232.890137,196.171753 
	C1235.536865,197.182037 1239.645752,194.380768 1243.087402,193.252121 
	C1243.363647,193.161499 1243.547729,192.789383 1244.231445,192.045517 
	C1244.114746,191.720718 1243.997925,191.395905 1243.881104,191.071121 
	C1243.540894,191.331085 1243.200806,191.591049 1242.156860,192.086746 
	C1240.592896,192.780197 1239.028931,193.473663 1236.538086,194.578125 
	C1236.838501,191.439896 1236.893921,189.338501 1237.265015,187.294403 
	C1238.122681,182.567566 1239.478882,177.900818 1239.923950,173.143356 
	C1240.121094,171.036484 1239.202881,167.729446 1237.696045,166.855652 
	C1236.069336,165.912399 1232.456055,166.354340 1230.957275,167.643219 
	C1227.516357,170.602264 1224.833740,174.443192 1221.089844,177.697922 
	C1221.136108,176.077347 1221.478638,174.395004 1221.156738,172.851227 
	C1220.713989,170.727921 1220.322144,167.990128 1218.866211,166.869812 
	C1217.664673,165.945190 1214.308228,166.227249 1213.029907,167.305893 
	C1209.683594,170.129822 1206.951782,173.682175 1203.440674,177.325592 
M547.691162,196.758698 
	C559.870789,191.073578 561.067871,183.592316 551.212646,174.853577 
	C549.096130,172.976852 546.471497,171.368607 545.104858,169.036636 
	C543.745056,166.716202 542.418640,163.042435 543.366760,161.053207 
	C544.461304,158.756744 547.877808,156.805038 550.610840,156.219376 
	C555.428101,155.187057 558.393494,158.316605 560.617249,162.768753 
	C561.053223,160.601059 561.489197,158.433365 561.906128,156.360291 
	C553.495544,152.566269 546.354065,153.441742 541.204956,158.662155 
	C536.483521,163.448975 536.460144,169.317139 541.247375,173.980774 
	C543.512695,176.187607 545.962158,178.204117 548.283020,180.355576 
	C554.653320,186.260864 554.240173,191.144669 546.148010,195.901657 
	C541.870117,195.084290 537.592285,194.266937 533.314392,193.449585 
	C533.184326,192.971786 533.054260,192.494003 532.924194,192.016220 
	C531.850952,193.093079 530.777649,194.169937 529.195740,195.757156 
	C535.750183,198.278412 541.295532,198.901871 547.691162,196.758698 
M809.552246,193.420334 
	C807.393799,194.105453 805.106812,194.336975 805.747192,191.123093 
	C808.083374,179.397690 810.319214,167.630096 813.334717,156.071945 
	C814.761353,150.603714 818.651306,149.093323 824.381104,150.607529 
	C827.486633,151.428238 828.938477,150.527298 829.941162,147.513550 
	C828.982727,147.288239 828.370483,147.050613 827.745728,147.011490 
	C818.097778,146.407257 810.326660,152.025360 806.111511,162.195770 
	C805.466431,163.752441 803.479858,165.731567 802.017212,165.814621 
	C791.313599,166.422440 785.072632,172.691910 780.988892,181.750290 
	C778.111145,188.133636 778.632141,193.939545 781.875183,196.083466 
	C785.439148,198.439545 790.544434,196.438538 795.518433,190.713242 
	C796.803101,189.234451 798.042603,187.716431 799.666809,185.783203 
	C801.204895,190.228653 797.097412,195.529114 803.271851,196.825119 
	C805.970703,197.391602 809.447388,197.046906 809.993835,192.699905 
	C809.993835,192.699905 810.272034,192.913559 810.272034,192.913559 
	C810.272034,192.913559 810.063477,192.775085 809.552246,193.420334 
M700.552246,193.420334 
	C698.393799,194.105484 696.106812,194.336975 696.747131,191.123093 
	C699.083313,179.397690 701.319275,167.630096 704.334717,156.071930 
	C705.761292,150.603699 709.651306,149.093353 715.381042,150.607544 
	C718.486633,151.428253 719.938477,150.527298 720.941162,147.513535 
	C719.982727,147.288239 719.370483,147.050598 718.745728,147.011490 
	C709.097778,146.407257 701.326660,152.025360 697.111511,162.195755 
	C696.466370,163.752441 694.479858,165.731567 693.017151,165.814636 
	C682.313538,166.422485 676.072754,172.691971 671.988953,181.750320 
	C669.111145,188.133606 669.632141,193.939545 672.875183,196.083466 
	C676.439148,198.439545 681.544495,196.438599 686.518494,190.713242 
	C687.803162,189.234528 689.042542,187.716370 690.666748,185.783005 
	C692.204895,190.228653 688.097412,195.529129 694.271851,196.825134 
	C696.970703,197.391617 700.447388,197.046906 700.993835,192.699905 
	C700.993835,192.699905 701.272034,192.913559 701.272034,192.913559 
	C701.272034,192.913559 701.063477,192.775085 700.552246,193.420334 
M953.280579,156.175491 
	C944.268616,159.142059 940.355042,163.660995 940.717896,171.679153 
	C942.625183,169.939804 945.128662,168.766510 945.374329,167.231827 
	C946.229980,161.885681 949.651611,159.259186 954.884155,157.254013 
	C955.903870,157.977325 957.896179,158.885773 957.799011,159.396484 
	C956.028259,168.698502 954.258118,178.019363 951.836792,187.163849 
	C951.319824,189.116348 948.306274,190.475143 946.327759,191.953415 
	C944.526306,193.299301 942.568604,194.436035 940.679749,195.664963 
	C940.964844,196.262192 941.249878,196.859436 941.534973,197.456665 
	C950.141113,196.971390 958.855103,197.175278 967.329895,195.849930 
	C982.537109,193.471756 990.887451,182.701263 990.060913,167.958267 
	C989.674622,161.068344 986.532349,156.470840 979.761902,155.930954 
	C971.239929,155.251419 962.602478,156.020996 953.280579,156.175491 
M313.832062,157.134094 
	C315.171997,157.205399 316.511963,157.276703 318.015381,157.356705 
	C317.191071,162.070908 316.292664,166.114883 315.830261,170.208115 
	C315.476440,173.340210 314.194031,175.221573 311.000732,175.664642 
	C310.798462,175.692703 310.661987,176.195129 310.449219,176.553879 
	C311.658234,176.893738 312.838959,177.225632 314.251556,177.622711 
	C312.814270,183.801544 312.586243,190.135544 306.261810,194.338791 
	C302.479950,193.769394 298.698059,193.199997 294.916199,192.630615 
	C294.881409,192.070343 294.846619,191.510071 294.811859,190.949799 
	C293.768860,192.074875 292.725830,193.199966 291.599731,194.414719 
	C297.533630,197.707855 300.359528,197.872894 307.810730,195.289825 
	C314.171387,192.384781 318.023743,187.397293 319.482422,180.661621 
	C320.082672,177.889893 321.237701,176.780884 324.167816,176.953476 
	C328.461548,177.206406 332.781189,177.018600 337.659607,177.018600 
	C336.292297,184.116013 335.019958,190.720383 333.607574,198.051804 
	C338.857666,197.206650 343.371368,196.480057 347.885040,195.753448 
	C340.508850,192.717468 340.383942,192.692734 342.024628,184.407394 
	C343.833130,175.274429 345.710938,166.146469 347.913879,157.102875 
	C349.898773,148.954391 352.521545,147.813644 360.451416,151.032104 
	C360.895874,150.200241 361.392487,149.366806 361.775085,148.483978 
	C361.865295,148.275970 361.571442,147.901474 361.447235,147.606339 
	C353.458008,145.955780 346.623566,149.221405 342.965851,157.378952 
	C340.957611,161.857651 340.337830,166.943161 338.816803,171.666473 
	C338.408630,172.934006 337.050812,174.750717 336.027802,174.819931 
	C331.132202,175.151169 326.201813,174.968536 320.967468,174.968536 
	C322.191010,168.034409 323.301941,161.738647 324.581421,154.487534 
	C320.109039,155.182526 316.561310,155.733841 312.322266,156.385895 
	C303.752716,159.650101 300.029388,164.433121 300.436279,173.123703 
	C302.454834,170.940170 304.763214,169.588531 305.121399,167.837845 
	C306.136963,162.874619 308.863037,159.539780 313.832062,157.134094 
M200.081070,31.099611 
	C196.728790,31.136927 193.376511,31.174240 189.270279,31.159210 
	C188.715561,32.708359 187.689667,34.254189 187.678741,35.807163 
	C187.565262,51.946053 187.752808,68.087982 187.531387,84.224602 
	C187.469101,88.764702 189.209198,89.914047 193.413956,89.855064 
	C208.885590,89.638031 224.362778,89.555817 239.834045,89.741798 
	C244.143494,89.793610 245.092529,88.252907 245.039886,84.232529 
	C244.830750,68.261902 244.962067,52.286907 244.945190,36.313557 
	C244.943497,34.706055 244.792465,33.098709 244.697403,31.229475 
	C233.862000,31.229475 223.422470,31.229475 212.070648,31.101856 
	C208.375671,31.146605 204.680710,31.191353 200.081070,31.099611 
M167.893723,216.943085 
	C172.176315,216.943085 176.458893,216.943085 180.708740,216.943085 
	C180.986267,215.788010 181.272232,215.149673 181.273834,214.510605 
	C181.316620,197.543106 181.304459,180.575455 181.369217,163.608063 
	C181.382858,160.035675 179.284836,159.746628 176.443466,159.747894 
	C139.513138,159.764343 102.582756,159.694336 65.652458,159.726715 
	C64.223557,159.727966 62.795349,160.538544 61.117722,161.883667 
	C61.117722,180.115372 61.117722,198.347061 61.117722,216.756531 
	C78.457405,216.756531 95.223991,216.756531 112.916756,216.917862 
	C122.940674,216.862869 132.964600,216.807877 143.915756,216.910782 
	C151.600861,216.866547 159.285965,216.822296 167.893723,216.943085 
M189.398361,97.441498 
	C188.850113,100.824150 187.838989,104.204887 187.825043,107.589745 
	C187.681015,142.531876 187.669754,177.474731 187.770004,212.416977 
	C187.774170,213.872345 189.238983,215.323532 190.931030,216.925446 
	C194.615707,216.867462 198.300385,216.809479 202.891357,216.906815 
	C206.255966,216.857758 209.620560,216.808701 213.913101,216.913147 
	C224.149551,216.913147 234.386002,216.913147 244.544922,216.913147 
	C244.544922,176.670212 244.544922,137.185547 244.544922,97.599648 
	C230.391022,97.599648 216.645935,97.599648 202.045792,97.370590 
	C198.052795,97.430618 194.059814,97.490654 189.398361,97.441498 
M125.292198,31.237974 
	C124.882187,32.568901 124.116135,33.899269 124.114037,35.230839 
	C124.055031,72.693947 124.115295,110.157288 124.016953,147.620224 
	C124.006516,151.595993 125.420433,152.773239 129.306091,152.721359 
	C144.621964,152.516876 159.946152,152.382812 175.257385,152.699570 
	C180.265030,152.803162 181.432388,151.140167 181.412399,146.439941 
	C181.256592,109.809891 181.336060,73.178856 181.317795,36.548126 
	C181.316925,34.806217 181.079895,33.064419 180.945267,31.218554 
	C175.585327,31.218554 170.780014,31.218554 165.048599,31.090149 
	C158.031921,31.140766 151.015259,31.191383 143.080109,31.092857 
	C137.383148,31.140181 131.686172,31.187504 125.292198,31.237974 
M61.304848,151.739792 
	C61.862259,152.044922 62.418793,152.614883 62.977219,152.616730 
	C80.135620,152.673813 97.294235,152.663727 114.452759,152.695465 
	C117.647003,152.701370 118.237991,150.834976 118.235512,148.121994 
	C118.201027,110.304718 118.235580,72.487328 118.123291,34.670357 
	C118.119896,33.525200 116.708817,32.384224 115.034042,31.085789 
	C97.139565,31.085789 79.245087,31.085789 61.059753,31.085789 
	C61.059753,36.883354 61.052429,42.019363 61.060932,47.155346 
	C61.118229,81.757385 61.178886,116.359421 61.304848,151.739792 
M1141.801147,212.881668 
	C1138.801514,211.804703 1136.007446,211.201111 1135.169312,215.629486 
	C1146.500732,216.949142 1154.297485,212.066345 1158.315063,200.907852 
	C1159.361206,198.002731 1160.534790,196.902695 1163.845215,196.902420 
	C1175.344360,196.901505 1186.939453,182.835052 1185.255981,171.395859 
	C1184.635620,167.179581 1181.415894,164.881134 1177.373413,166.352173 
	C1174.960327,167.230331 1172.665771,168.849487 1170.766113,170.617218 
	C1168.423706,172.796860 1166.547241,175.477264 1164.469482,177.941284 
	C1164.225586,177.824539 1163.981689,177.707794 1163.737793,177.591064 
	C1164.468262,173.797623 1165.198730,170.004181 1166.068848,165.484863 
	C1160.821777,167.256149 1156.449463,168.732147 1152.077026,170.208145 
	C1152.170166,170.644104 1152.263306,171.080063 1152.356445,171.516037 
	C1154.686890,171.859238 1159.143066,169.221024 1158.237427,174.411072 
	C1156.354370,185.202545 1154.151855,195.954742 1151.571533,206.599701 
	C1150.571167,210.727463 1147.380493,213.353577 1141.801147,212.881668 
M414.952423,173.259140 
	C413.353027,181.015381 411.753601,188.771637 410.103973,196.771393 
	C412.264496,196.771393 414.028931,196.771393 415.876251,196.771393 
	C417.657867,184.997849 422.421356,175.470612 434.446838,168.969818 
	C434.221558,172.442795 434.284851,174.396378 433.935089,176.272995 
	C433.111694,180.690964 431.795868,185.037598 431.275116,189.482895 
	C431.015228,191.701675 431.430115,195.522964 432.658142,196.059479 
	C434.871948,197.026688 437.926727,196.069107 440.630219,195.915482 
	C436.347321,193.289658 436.257355,193.269196 437.045258,188.949554 
	C437.941315,184.037033 439.369080,179.191940 439.859741,174.247467 
	C440.105652,171.769394 439.541351,167.827988 437.970551,166.917831 
	C436.182434,165.881760 432.746735,167.165543 430.250732,168.062881 
	C428.644836,168.640213 427.298096,170.209854 426.090790,171.562790 
	C424.113647,173.778381 422.344574,176.179657 420.487762,178.502609 
	C421.159241,170.751572 422.554047,163.396164 424.768799,156.296524 
	C426.574860,150.506989 430.280853,149.284836 436.170868,150.709290 
	C437.855713,151.116760 439.928680,149.919540 441.823669,149.458130 
	C433.898254,145.334625 425.063690,148.522781 420.695129,156.547470 
	C418.043701,161.417908 416.893341,167.105484 414.952423,173.259140 
M712.865417,176.418945 
	C711.641968,178.768677 710.123535,181.014709 709.253784,183.488785 
	C707.152344,189.465820 708.050415,194.471909 711.196228,196.267517 
	C714.488770,198.146896 718.949707,196.588226 723.407166,191.925110 
	C725.122803,190.130249 726.736816,188.238174 728.708252,186.044052 
	C730.158875,190.145737 726.332886,195.181396 731.703918,196.761810 
	C735.643677,197.921097 738.861389,195.425308 741.309631,192.231491 
	C739.358093,192.849380 737.406555,193.467270 734.039856,194.533203 
	C735.968018,184.569885 737.676758,175.740387 739.376648,166.956512 
	C729.459961,163.883148 720.725830,166.911118 712.865417,176.418945 
M624.048523,192.169998 
	C622.146179,192.784210 620.243896,193.398407 617.057007,194.427353 
	C618.998596,184.367950 620.700623,175.549927 622.393860,166.777313 
	C608.764893,163.728333 597.813232,169.552246 592.703125,182.161011 
	C590.272766,188.157516 590.751831,193.993927 593.844543,196.067352 
	C597.318604,198.396454 602.258667,196.562943 607.153870,191.126190 
	C608.580444,189.541748 610.004639,187.955078 612.073914,185.652954 
	C612.073914,187.911209 612.140747,188.889862 612.063110,189.856903 
	C611.508118,196.769150 614.303223,198.797409 620.510254,195.775192 
	C622.071045,195.015274 623.309143,193.592850 624.048523,192.169998 
M901.487976,179.778534 
	C899.993286,188.288132 898.793762,196.863785 896.908508,205.285965 
	C895.458374,211.764679 892.004333,213.470963 885.536865,212.754868 
	C883.636902,212.544479 881.583557,213.719070 879.600525,214.258926 
	C879.774719,214.778839 879.948914,215.298752 880.123169,215.818665 
	C889.025513,216.955429 896.123352,213.838989 900.422668,205.858490 
	C902.587036,201.840805 903.974609,197.262497 904.938965,192.771393 
	C906.674683,184.687225 907.827332,176.477875 909.232544,168.268509 
	C912.782959,168.081161 915.926819,167.915268 919.070740,167.749374 
	C919.046936,167.227753 919.023132,166.706146 918.999268,166.184540 
	C916.013000,166.032303 913.026672,165.880066 909.701172,165.710556 
	C910.295715,162.857651 910.657654,160.567062 911.258240,158.340866 
	C913.233276,151.020508 916.053955,149.477615 923.623413,150.623550 
	C925.211792,150.864014 927.068420,149.332581 928.801453,148.617645 
	C916.313477,145.817932 908.994019,151.220871 903.617737,165.558426 
	C901.825439,165.941818 900.033142,166.325211 898.240845,166.708603 
	C898.270325,167.037781 898.299805,167.366959 898.329285,167.696152 
	C899.833252,167.921158 901.337219,168.146164 903.207397,168.425964 
	C902.671326,172.092712 902.171570,175.511566 901.487976,179.778534 
M1108.740723,195.471283 
	C1111.054565,193.611847 1113.368408,191.752411 1115.682129,189.892975 
	C1115.426636,189.576385 1115.171143,189.259811 1114.915527,188.943222 
	C1112.176880,190.761215 1109.438232,192.579208 1106.585083,194.473114 
	C1105.917480,193.210968 1105.423096,192.724152 1105.500244,192.357285 
	C1108.092285,180.006668 1110.408203,167.582718 1113.540527,155.368454 
	C1114.786743,150.508286 1118.768921,149.068268 1124.036499,150.582855 
	C1127.410156,151.552887 1128.792847,150.380493 1129.845947,147.450439 
	C1117.595581,145.802200 1108.639160,151.837662 1105.248413,164.492599 
	C1103.055298,172.678162 1101.524170,181.060730 1100.079834,189.421249 
	C1098.832520,196.640915 1101.097534,198.299896 1108.740723,195.471283 
M1005.470886,197.015320 
	C1009.296143,195.818283 1013.121399,194.621246 1016.946594,193.424194 
	C1013.221497,192.809769 1009.786011,194.064041 1006.532104,193.699188 
	C1002.131042,193.205734 1001.626343,189.439346 1002.005005,185.442978 
	C1003.150330,185.240295 1004.388367,185.287430 1005.362122,184.803070 
	C1009.731018,182.629852 1014.416504,180.811813 1018.217773,177.870453 
	C1021.097412,175.642197 1021.489929,171.619431 1019.282410,168.307434 
	C1017.138306,165.090622 1013.861023,165.691147 1010.710144,166.673615 
	C1002.770630,169.149246 995.895508,178.312607 995.712891,186.646072 
	C995.576782,192.855591 998.226196,195.932693 1005.470886,197.015320 
M453.588776,174.149414 
	C450.188873,178.503906 448.170959,183.318130 448.854279,188.959015 
	C449.402710,193.486481 452.047607,196.875259 456.478455,196.764099 
	C461.005798,196.650528 465.490936,194.852829 469.994537,193.792374 
	C469.858582,193.290573 469.722656,192.788773 469.586700,192.286972 
	C466.218201,192.814560 462.764557,194.071686 459.502136,193.690857 
	C455.114838,193.178696 454.608215,189.419342 455.023499,185.429276 
	C456.187042,185.226074 457.431000,185.279083 458.405090,184.792206 
	C462.772980,182.608917 467.463043,180.782898 471.252655,177.823746 
	C474.119080,175.585495 474.499176,171.550339 472.242950,168.252808 
	C470.060059,165.062515 466.551575,165.286987 463.694366,166.803131 
	C460.249023,168.631378 457.246613,171.294235 453.588776,174.149414 
M1068.899536,192.454666 
	C1073.865601,198.601852 1082.374878,198.521118 1088.434204,192.269348 
	C1075.095215,194.416199 1073.530640,193.672974 1074.256592,185.421417 
	C1076.482300,184.951492 1078.981812,184.931992 1080.945923,183.896805 
	C1084.398315,182.077301 1088.319702,180.224915 1090.514038,177.255234 
	C1092.056641,175.167480 1092.059448,170.702820 1090.831909,168.265427 
	C1090.078735,166.769867 1085.461792,166.141983 1083.001831,166.772003 
	C1072.649170,169.423508 1065.966797,181.446487 1068.899536,192.454666 
M1273.449829,172.410202 
	C1272.434448,166.673370 1269.921997,164.862823 1264.545654,166.460739 
	C1256.514648,168.847672 1251.770142,174.668533 1249.341675,182.369659 
	C1247.405029,188.511444 1249.213623,193.726547 1253.495361,196.002426 
	C1257.849121,198.316544 1265.717896,196.427277 1269.302246,192.207260 
	C1256.558105,194.765289 1254.276611,193.657593 1255.370850,185.405823 
	C1263.048828,183.800964 1271.048340,182.625122 1273.449829,172.410202 
M1334.637451,162.360779 
	C1334.915039,160.499557 1335.192749,158.638321 1335.485229,156.677902 
	C1331.276978,156.759583 1329.213135,158.368729 1329.009644,162.055649 
	C1328.861938,164.728867 1327.856567,166.437454 1324.705811,166.079361 
	C1323.943726,165.992722 1323.078857,166.809952 1321.600220,167.536179 
	C1324.116943,167.915100 1325.844604,168.175217 1327.687866,168.452759 
	C1326.366089,175.251999 1324.824951,181.740601 1323.968628,188.318390 
	C1323.641846,190.829391 1324.081543,194.949707 1325.608521,195.821976 
	C1327.658081,196.992935 1331.202881,196.103790 1333.909424,195.372314 
	C1335.722412,194.882385 1337.194336,193.130539 1338.818848,191.943359 
	C1337.275269,191.592484 1336.350952,192.294739 1335.318481,192.537643 
	C1333.501343,192.965164 1331.617920,193.112030 1329.762207,193.376434 
	C1329.681274,191.621811 1329.297852,189.817459 1329.576660,188.121964 
	C1330.385986,183.201340 1331.787598,178.360504 1332.333862,173.419510 
	C1332.822021,169.004440 1334.703369,167.358200 1339.051392,167.956299 
	C1340.463989,168.150620 1341.989136,167.526306 1343.462891,167.276428 
	C1343.396606,166.841156 1343.330322,166.405899 1343.264038,165.970642 
	C1340.954590,165.970642 1338.607422,166.204346 1336.357056,165.840393 
	C1335.597534,165.717560 1335.083130,164.079422 1334.637451,162.360779 
M570.969299,196.904846 
	C575.862366,197.344772 579.396851,195.047760 582.361816,191.607666 
	C581.261169,191.561386 580.452087,192.178085 579.543518,192.418503 
	C577.706299,192.904572 575.815125,193.186462 573.946167,193.552536 
	C573.820435,191.660706 573.353027,189.716095 573.635559,187.887344 
	C574.371277,183.125076 575.705017,178.446671 576.291016,173.672302 
	C576.836060,169.232773 578.582214,167.123459 583.294250,167.956436 
	C584.631897,168.192886 586.124451,167.552689 587.545959,167.314529 
	C587.509338,166.939575 587.472656,166.564621 587.436035,166.189651 
	C584.393738,166.046524 581.351501,165.903397 578.131165,165.751877 
	C578.614197,162.489395 579.036194,159.638672 579.471924,156.695541 
	C575.338806,156.739624 573.241577,158.297791 573.015808,162.002243 
	C572.856262,164.619522 571.969788,166.457428 568.759644,166.073715 
	C567.990662,165.981796 567.116150,166.772263 565.443420,167.551193 
	C568.123047,167.925507 569.844299,168.165939 571.664917,168.420258 
	C570.309753,175.524628 568.683899,182.342010 567.871277,189.254944 
	C567.595215,191.603363 569.369812,194.192825 570.969299,196.904846 
M486.215302,177.551163 
	C484.894806,183.856430 483.574280,190.161713 482.251099,196.479767 
	C487.648590,197.205139 488.156372,197.069855 488.870514,192.404175 
	C490.047089,184.717072 494.530426,179.026947 499.695312,173.770889 
	C500.988037,172.455322 503.287170,170.961212 504.798248,171.250320 
	C509.041321,172.062119 509.691376,169.577820 510.780853,166.240555 
	C500.505676,165.145462 497.331757,173.702896 492.812256,178.421051 
	C492.286285,174.639557 492.184113,170.477646 490.797150,166.800293 
	C490.516968,166.057327 485.374359,167.148254 482.473511,167.393692 
	C482.414398,167.869827 482.355286,168.345963 482.296173,168.822098 
	C489.434784,168.747314 486.770782,173.280014 486.215302,177.551163 
M763.883667,174.373398 
	C762.713013,175.958450 761.542358,177.543503 760.884949,178.433563 
	C760.274536,174.480042 760.096008,170.358475 758.679321,166.718903 
	C758.404907,166.014008 753.295898,167.191040 750.416992,167.499954 
	C750.347778,168.012833 750.278564,168.525711 750.209351,169.038574 
	C755.883667,168.116714 755.453613,171.568146 754.804077,174.860718 
	C753.374390,182.108215 751.768250,189.320908 750.226196,196.585022 
	C755.822510,197.090668 756.157532,197.047775 756.898071,192.255386 
	C758.083130,184.586121 762.593750,178.935486 767.759460,173.710114 
	C769.048279,172.406326 771.364441,170.946594 772.868347,171.249084 
	C777.185120,172.117294 777.688477,169.519684 778.717346,166.318008 
	C771.613159,165.143341 768.009888,169.589615 763.883667,174.373398 
M835.178711,184.638443 
	C833.314087,182.309799 831.165466,180.147644 829.672546,177.601074 
	C828.424194,175.471588 827.398560,172.888260 827.416809,170.514664 
	C827.423218,169.682861 831.307617,167.769302 832.575256,168.314941 
	C834.558533,169.168610 835.810913,171.703934 837.408142,173.495544 
	C837.569153,173.676132 837.971802,173.641281 838.734802,173.812332 
	C839.137939,171.619141 839.534607,169.461319 840.166626,166.023209 
	C835.956482,166.367996 832.406494,166.009598 829.319763,167.039597 
	C821.657288,169.596481 820.286621,175.632629 825.596252,181.596481 
	C827.033875,183.211197 828.793091,184.618286 829.890381,186.431870 
	C830.737122,187.831375 831.617310,190.251953 830.975891,191.257156 
	C830.097656,192.633514 827.768738,193.835876 826.103577,193.783310 
	C823.572021,193.703369 821.076599,192.482452 818.073669,191.601822 
	C817.391846,192.458527 816.451721,193.639801 814.595764,195.971832 
	C819.233154,196.298431 822.698547,197.128311 825.973999,196.651993 
	C832.932556,195.640121 836.359131,191.201385 835.178711,184.638443 
M367.937653,167.156235 
	C363.545410,168.042328 359.153168,168.928421 354.760925,169.814514 
	C354.859222,170.301758 354.957520,170.788986 355.055817,171.276215 
	C361.061005,170.864716 361.239838,171.032440 360.148712,177.180435 
	C359.392944,181.438766 358.244080,185.646530 357.795166,189.931793 
	C357.578339,192.001740 357.891785,195.156555 359.196198,196.078613 
	C360.613861,197.080765 363.624390,196.515625 365.638489,195.792709 
	C367.605896,195.086578 369.192413,193.319290 370.946136,192.017822 
	C370.772308,191.761337 370.598480,191.504868 370.424652,191.248398 
	C368.344482,192.227875 366.264313,193.207352 364.184143,194.186813 
	C363.664154,193.911560 363.144196,193.636307 362.624207,193.361038 
	C364.421539,184.886337 366.218903,176.411636 367.937653,167.156235 
M370.550201,152.238831 
	C368.148987,154.042480 365.747772,155.846130 363.346588,157.649765 
	C363.764832,158.141190 364.183075,158.632629 364.601318,159.124054 
	C367.238647,157.269943 371.655029,157.364899 370.550201,152.238831 
M1245.703857,190.532303 
	C1245.658447,190.263153 1245.613037,189.994003 1245.567627,189.724869 
	C1245.336426,189.774033 1245.105225,189.823196 1244.874023,189.872330 
	C1244.961304,190.194427 1245.048584,190.516525 1245.703857,190.532303 
z"/>
<path fill="#CBA667" opacity="1.000000" stroke="none" 
	d="
M61.238449,150.961456 
	C61.178886,116.359421 61.118229,81.757385 61.060932,47.155346 
	C61.052429,42.019363 61.059753,36.883354 61.059753,31.085789 
	C79.245087,31.085789 97.139565,31.085789 115.455719,31.538109 
	C115.274887,36.052860 114.265709,40.103958 114.152077,44.180023 
	C113.892120,53.504921 114.069885,62.842026 114.069885,72.174171 
	C114.069885,98.144073 114.069885,124.113968 114.069885,150.961456 
	C96.426712,150.961456 78.832581,150.961456 61.238449,150.961456 
z"/>
<path fill="#AD782F" opacity="1.000000" stroke="none" 
	d="
M202.900848,97.599648 
	C216.645935,97.599648 230.391022,97.599648 244.544922,97.599648 
	C244.544922,137.185547 244.544922,176.670212 244.544922,216.913147 
	C234.386002,216.913147 224.149551,216.913147 213.450958,216.383270 
	C212.993744,180.210541 213.008484,144.567688 212.997742,108.924820 
	C212.994492,98.147507 213.940323,99.013588 202.969330,98.649887 
	C202.924667,98.066902 202.912766,97.833275 202.900848,97.599648 
z"/>
<path fill="#CBA667" opacity="1.000000" stroke="none" 
	d="
M111.990585,216.756531 
	C95.223991,216.756531 78.457405,216.756531 61.117722,216.756531 
	C61.117722,198.347061 61.117722,180.115372 61.684631,161.474091 
	C78.825363,161.188217 95.399185,161.311905 111.977928,161.876923 
	C111.985428,180.464355 111.988007,198.610443 111.990585,216.756531 
z"/>
<path fill="#C99D4F" opacity="1.000000" stroke="none" 
	d="
M143.998581,31.242001 
	C151.015259,31.191383 158.031921,31.140766 165.518753,31.608997 
	C166.000305,69.612137 165.951981,107.096664 166.100082,144.580414 
	C166.118210,149.169952 164.991013,151.397491 159.973785,151.035675 
	C155.000351,150.676987 149.983994,150.913483 144.990128,150.431122 
	C144.995850,117.689774 145.057755,85.406036 144.954346,53.122833 
	C144.930984,45.828278 144.332397,38.535564 143.998581,31.242001 
z"/>
<path fill="#BA8E42" opacity="1.000000" stroke="none" 
	d="
M144.986465,150.888916 
	C149.983994,150.913483 155.000351,150.676987 159.973785,151.035675 
	C164.991013,151.397491 166.118210,149.169952 166.100082,144.580414 
	C165.951981,107.096664 166.000305,69.612137 165.981812,31.673199 
	C170.780014,31.218554 175.585327,31.218554 180.945267,31.218554 
	C181.079895,33.064419 181.316925,34.806217 181.317795,36.548126 
	C181.336060,73.178856 181.256592,109.809891 181.412399,146.439941 
	C181.432388,151.140167 180.265030,152.803162 175.257385,152.699570 
	C159.946152,152.382812 144.621964,152.516876 129.306091,152.721359 
	C125.420433,152.773239 124.006516,151.595993 124.016953,147.620224 
	C124.115295,110.157288 124.055031,72.693947 124.114037,35.230839 
	C124.116135,33.899269 124.882187,32.568901 125.649284,31.689690 
	C126.009598,66.456261 126.012444,100.771118 126.016586,135.085968 
	C126.017052,138.917206 126.114807,142.751129 126.001511,146.578873 
	C125.906342,149.794678 127.332520,151.088699 130.496414,151.001083 
	C135.323776,150.867371 140.156189,150.917084 144.986465,150.888916 
z"/>
<path fill="#CAA059" opacity="1.000000" stroke="none" 
	d="
M144.990128,150.431122 
	C140.156189,150.917084 135.323776,150.867371 130.496414,151.001083 
	C127.332520,151.088699 125.906342,149.794678 126.001511,146.578873 
	C126.114807,142.751129 126.017052,138.917206 126.016586,135.085968 
	C126.012444,100.771118 126.009598,66.456261 125.997787,31.688118 
	C131.686172,31.187504 137.383148,31.140181 143.539337,31.167431 
	C144.332397,38.535564 144.930984,45.828278 144.954346,53.122833 
	C145.057755,85.406036 144.995850,117.689774 144.990128,150.431122 
z"/>
<path fill="#AA762E" opacity="1.000000" stroke="none" 
	d="
M212.982941,31.229475 
	C223.422470,31.229475 233.862000,31.229475 244.697403,31.229475 
	C244.792465,33.098709 244.943497,34.706055 244.945190,36.313557 
	C244.962067,52.286907 244.830750,68.261902 245.039886,84.232529 
	C245.092529,88.252907 244.143494,89.793610 239.834045,89.741798 
	C224.362778,89.555817 208.885590,89.638031 193.413956,89.855064 
	C189.209198,89.914047 187.469101,88.764702 187.531387,84.224602 
	C187.752808,68.087982 187.565262,51.946053 187.678741,35.807163 
	C187.689667,34.254189 188.715561,32.708359 189.638000,31.640308 
	C189.998459,47.100231 189.916412,62.079510 190.008011,77.057732 
	C190.079285,88.711426 188.135880,88.112144 201.394470,87.886742 
	C212.503036,88.063423 214.124023,86.608284 213.973831,76.009666 
	C213.762238,61.081253 213.324158,46.156052 212.982941,31.229475 
z"/>
<path fill="#C9A15B" opacity="1.000000" stroke="none" 
	d="
M112.453674,216.837189 
	C111.988007,198.610443 111.985428,180.464355 112.441521,161.791809 
	C122.935226,161.519638 132.970261,161.773941 143.004227,162.495132 
	C142.998276,180.892303 142.993378,198.822586 142.988495,216.752869 
	C132.964600,216.807877 122.940674,216.862869 112.453674,216.837189 
z"/>
<path fill="#BF8B31" opacity="1.000000" stroke="none" 
	d="
M202.473328,97.485123 
	C202.912766,97.833275 202.924667,98.066902 202.762573,99.007568 
	C202.392410,101.847176 202.027496,103.979561 202.025192,106.112335 
	C201.985321,142.992020 201.990082,179.871765 201.985062,216.751495 
	C198.300385,216.809479 194.615707,216.867462 190.470917,216.396851 
	C190.029480,176.429062 190.048157,136.989868 190.066833,97.550682 
	C194.059814,97.490654 198.052795,97.430618 202.473328,97.485123 
z"/>
<path fill="#C99C4E" opacity="1.000000" stroke="none" 
	d="
M143.452118,216.831818 
	C142.993378,198.822586 142.998276,180.892303 143.472168,162.485184 
	C149.600830,162.009277 155.269806,162.209869 160.917206,161.947083 
	C165.322723,161.742081 167.181854,163.083511 167.109909,167.840134 
	C166.863235,184.149750 166.987946,200.464966 166.971069,216.778046 
	C159.285965,216.822296 151.600861,216.866547 143.452118,216.831818 
z"/>
<path fill="#B78130" opacity="1.000000" stroke="none" 
	d="
M202.438202,216.829163 
	C201.990082,179.871765 201.985321,142.992020 202.025192,106.112335 
	C202.027496,103.979561 202.392410,101.847176 202.795319,99.356934 
	C213.940323,99.013588 212.994492,98.147507 212.997742,108.924820 
	C213.008484,144.567688 212.993744,180.210541 212.986984,216.306519 
	C209.620560,216.808701 206.255966,216.857758 202.438202,216.829163 
z"/>
<path fill="#BA8E42" opacity="1.000000" stroke="none" 
	d="
M167.432388,216.860565 
	C166.987946,200.464966 166.863235,184.149750 167.109909,167.840134 
	C167.181854,163.083511 165.322723,161.742081 160.917206,161.947083 
	C155.269806,162.209869 149.600830,162.009277 143.473236,162.018295 
	C132.970261,161.773941 122.935226,161.519638 112.436600,161.350464 
	C95.399185,161.311905 78.825363,161.188217 61.809181,161.018250 
	C62.795349,160.538544 64.223557,159.727966 65.652458,159.726715 
	C102.582756,159.694336 139.513138,159.764343 176.443466,159.747894 
	C179.284836,159.746628 181.382858,160.035675 181.369217,163.608063 
	C181.304459,180.575455 181.316620,197.543106 181.273834,214.510605 
	C181.272232,215.149673 180.986267,215.788010 180.708740,216.943085 
	C176.458893,216.943085 172.176315,216.943085 167.432388,216.860565 
z"/>
<path fill="#B08F55" opacity="1.000000" stroke="none" 
	d="
M61.271648,151.350616 
	C78.832581,150.961456 96.426712,150.961456 114.069885,150.961456 
	C114.069885,124.113968 114.069885,98.144073 114.069885,72.174171 
	C114.069885,62.842026 113.892120,53.504921 114.152077,44.180023 
	C114.265709,40.103958 115.274887,36.052860 115.915710,31.615864 
	C116.708817,32.384224 118.119896,33.525200 118.123291,34.670357 
	C118.235580,72.487328 118.201027,110.304718 118.235512,148.121994 
	C118.237991,150.834976 117.647003,152.701370 114.452759,152.695465 
	C97.294235,152.663727 80.135620,152.673813 62.977219,152.616730 
	C62.418793,152.614883 61.862259,152.044922 61.271648,151.350616 
z"/>
<path fill="#BF8B31" opacity="1.000000" stroke="none" 
	d="
M200.946259,87.857498 
	C188.135880,88.112144 190.079285,88.711426 190.008011,77.057732 
	C189.916412,62.079510 189.998459,47.100231 190.014969,31.666481 
	C193.376511,31.174240 196.728790,31.136927 200.577118,31.571461 
	C201.382172,34.823170 201.938293,37.601273 201.958084,40.383190 
	C202.052078,53.603500 202.055817,66.825287 201.952271,80.045456 
	C201.931870,82.651939 201.297485,85.253609 200.946259,87.857498 
z"/>
<path fill="#B68130" opacity="1.000000" stroke="none" 
	d="
M201.394470,87.886742 
	C201.297485,85.253609 201.931870,82.651939 201.952271,80.045456 
	C202.055817,66.825287 202.052078,53.603500 201.958084,40.383190 
	C201.938293,37.601273 201.382172,34.823170 201.029449,31.639706 
	C204.680710,31.191353 208.375671,31.146605 212.526794,31.165665 
	C213.324158,46.156052 213.762238,61.081253 213.973831,76.009666 
	C214.124023,86.608284 212.503036,88.063423 201.394470,87.886742 
z"/>
<path fill="#AF7C2E" opacity="1.000000" stroke="none" 
	d="
M313.013611,156.285141 
	C316.561310,155.733841 320.109039,155.182526 324.581421,154.487534 
	C323.301941,161.738647 322.191010,168.034409 320.967468,174.968536 
	C326.201813,174.968536 331.132202,175.151169 336.027802,174.819931 
	C337.050812,174.750717 338.408630,172.934006 338.816803,171.666473 
	C340.337830,166.943161 340.957611,161.857651 342.965851,157.378952 
	C346.623566,149.221405 353.458008,145.955780 361.450745,147.604950 
	C361.571442,147.901474 361.865295,148.275970 361.775085,148.483978 
	C361.392487,149.366806 360.895874,150.200241 360.451416,151.032104 
	C352.521545,147.813644 349.898773,148.954391 347.913879,157.102875 
	C345.710938,166.146469 343.833130,175.274429 342.024628,184.407394 
	C340.383942,192.692734 340.508850,192.717468 347.885040,195.753448 
	C343.371368,196.480057 338.857666,197.206650 333.607574,198.051804 
	C335.019958,190.720383 336.292297,184.116013 337.659607,177.018600 
	C332.781189,177.018600 328.461548,177.206406 324.167816,176.953476 
	C321.237701,176.780884 320.082672,177.889893 319.482422,180.661621 
	C318.023743,187.397293 314.171387,192.384781 307.444733,195.083038 
	C307.056732,194.653122 307.034698,194.429977 307.012665,194.206833 
	C312.586243,190.135544 312.814270,183.801544 314.251556,177.622711 
	C312.838959,177.225632 311.658234,176.893738 310.449219,176.553879 
	C310.661987,176.195129 310.798462,175.692703 311.000732,175.664642 
	C314.194031,175.221573 315.476440,173.340210 315.830261,170.208115 
	C316.292664,166.114883 317.191071,162.070908 318.015381,157.356705 
	C316.511963,157.276703 315.171997,157.205399 313.427399,156.903839 
	C313.022736,156.673584 313.013611,156.285141 313.013611,156.285141 
z"/>
<path fill="#B07C2E" opacity="1.000000" stroke="none" 
	d="
M954.014832,156.165314 
	C962.602478,156.020996 971.239929,155.251419 979.761902,155.930954 
	C986.532349,156.470840 989.674622,161.068344 990.060913,167.958267 
	C990.887451,182.701263 982.537109,193.471756 967.329895,195.849930 
	C958.855103,197.175278 950.141113,196.971390 941.534973,197.456665 
	C941.249878,196.859436 940.964844,196.262192 940.679749,195.664963 
	C942.568604,194.436035 944.526306,193.299301 946.327759,191.953415 
	C948.306274,190.475143 951.319824,189.116348 951.836792,187.163849 
	C954.258118,178.019363 956.028259,168.698502 957.799011,159.396484 
	C957.896179,158.885773 955.903870,157.977325 954.463989,156.984207 
	C954.034180,156.531357 954.024536,156.348328 954.014832,156.165314 
M968.542664,157.006592 
	C965.526978,156.553574 964.466553,157.808868 963.606140,160.855057 
	C960.538025,171.717422 962.372864,184.493301 950.866882,192.619141 
	C954.105225,193.133774 956.501587,193.639282 958.924194,193.879105 
	C973.265320,195.298782 981.149475,189.064484 983.278870,174.698532 
	C984.933228,163.537659 980.715637,158.156677 968.542664,157.006592 
z"/>
<path fill="#AC7A2D" opacity="1.000000" stroke="none" 
	d="
M1142.203613,212.918106 
	C1147.380493,213.353577 1150.571167,210.727463 1151.571533,206.599701 
	C1154.151855,195.954742 1156.354370,185.202545 1158.237427,174.411072 
	C1159.143066,169.221024 1154.686890,171.859238 1152.356445,171.516037 
	C1152.263306,171.080063 1152.170166,170.644104 1152.077026,170.208145 
	C1156.449463,168.732147 1160.821777,167.256149 1166.068848,165.484863 
	C1165.198730,170.004181 1164.468262,173.797623 1163.737793,177.591064 
	C1163.981689,177.707794 1164.225586,177.824539 1164.469482,177.941284 
	C1166.547241,175.477264 1168.423706,172.796860 1170.766113,170.617218 
	C1172.665771,168.849487 1174.960327,167.230331 1177.373413,166.352173 
	C1181.415894,164.881134 1184.635620,167.179581 1185.255981,171.395859 
	C1186.939453,182.835052 1175.344360,196.901505 1163.845215,196.902420 
	C1160.534790,196.902695 1159.361206,198.002731 1158.315063,200.907852 
	C1154.297485,212.066345 1146.500732,216.949142 1135.169312,215.629486 
	C1136.007446,211.201111 1138.801514,211.804703 1142.203613,212.918106 
M1161.371460,188.182281 
	C1159.870483,192.170959 1162.009888,194.168686 1165.486572,193.746307 
	C1168.477173,193.383011 1172.693359,192.269974 1173.881226,190.116714 
	C1176.512695,185.346878 1177.723267,179.753586 1179.173584,174.404083 
	C1179.477905,173.281952 1178.573730,170.855728 1177.779541,170.634460 
	C1176.494141,170.276276 1174.238281,170.757690 1173.440308,171.737930 
	C1169.307495,176.814545 1165.507324,182.161942 1161.371460,188.182281 
z"/>
<path fill="#AD7A2E" opacity="1.000000" stroke="none" 
	d="
M415.010559,172.842560 
	C416.893341,167.105484 418.043701,161.417908 420.695129,156.547470 
	C425.063690,148.522781 433.898254,145.334625 441.823669,149.458130 
	C439.928680,149.919540 437.855713,151.116760 436.170868,150.709290 
	C430.280853,149.284836 426.574860,150.506989 424.768799,156.296524 
	C422.554047,163.396164 421.159241,170.751572 420.487762,178.502609 
	C422.344574,176.179657 424.113647,173.778381 426.090790,171.562790 
	C427.298096,170.209854 428.644836,168.640213 430.250732,168.062881 
	C432.746735,167.165543 436.182434,165.881760 437.970551,166.917831 
	C439.541351,167.827988 440.105652,171.769394 439.859741,174.247467 
	C439.369080,179.191940 437.941315,184.037033 437.045258,188.949554 
	C436.257355,193.269196 436.347321,193.289658 440.630219,195.915482 
	C437.926727,196.069107 434.871948,197.026688 432.658142,196.059479 
	C431.430115,195.522964 431.015228,191.701675 431.275116,189.482895 
	C431.795868,185.037598 433.111694,180.690964 433.935089,176.272995 
	C434.284851,174.396378 434.221558,172.442795 434.446838,168.969818 
	C422.421356,175.470612 417.657867,184.997849 415.876251,196.771393 
	C414.028931,196.771393 412.264496,196.771393 410.103973,196.771393 
	C411.753601,188.771637 413.353027,181.015381 415.010559,172.842560 
z"/>
<path fill="#AC7A2D" opacity="1.000000" stroke="none" 
	d="
M701.009460,192.880859 
	C700.447388,197.046906 696.970703,197.391617 694.271851,196.825134 
	C688.097412,195.529129 692.204895,190.228653 690.666748,185.783005 
	C689.042542,187.716370 687.803162,189.234528 686.518494,190.713242 
	C681.544495,196.438599 676.439148,198.439545 672.875183,196.083466 
	C669.632141,193.939545 669.111145,188.133606 671.988953,181.750320 
	C676.072754,172.691971 682.313538,166.422485 693.017151,165.814636 
	C694.479858,165.731567 696.466370,163.752441 697.111511,162.195755 
	C701.326660,152.025360 709.097778,146.407257 718.745728,147.011490 
	C719.370483,147.050598 719.982727,147.288239 720.941162,147.513535 
	C719.938477,150.527298 718.486633,151.428253 715.381042,150.607544 
	C709.651306,149.093353 705.761292,150.603699 704.334717,156.071930 
	C701.319275,167.630096 699.083313,179.397690 696.747131,191.123093 
	C696.106812,194.336975 698.393799,194.105484 700.793762,193.123840 
	C701.035278,192.827362 701.009460,192.880859 701.009460,192.880859 
M692.535339,169.611115 
	C688.607544,168.493240 684.215820,168.242065 682.217041,172.064529 
	C679.513489,177.234528 677.954346,183.034119 676.250305,188.668304 
	C675.923157,189.749771 676.850647,191.924271 677.830078,192.477158 
	C678.725281,192.982529 681.013367,192.433075 681.758301,191.557632 
	C685.920654,186.666351 690.057739,181.705948 693.606750,176.372162 
	C694.562256,174.936218 693.437988,172.116409 692.535339,169.611115 
M690.726257,185.694641 
	C691.094482,185.541382 691.462708,185.388123 691.830933,185.234863 
	C691.501709,185.152939 691.172546,185.071014 690.726257,185.694641 
z"/>
<path fill="#AC7A2D" opacity="1.000000" stroke="none" 
	d="
M810.009460,192.880859 
	C809.447388,197.046906 805.970703,197.391602 803.271851,196.825119 
	C797.097412,195.529114 801.204895,190.228653 799.666809,185.783203 
	C798.042603,187.716431 796.803101,189.234451 795.518433,190.713242 
	C790.544434,196.438538 785.439148,198.439545 781.875183,196.083466 
	C778.632141,193.939545 778.111145,188.133636 780.988892,181.750290 
	C785.072632,172.691910 791.313599,166.422440 802.017212,165.814621 
	C803.479858,165.731567 805.466431,163.752441 806.111511,162.195770 
	C810.326660,152.025360 818.097778,146.407257 827.745728,147.011490 
	C828.370483,147.050613 828.982727,147.288239 829.941162,147.513550 
	C828.938477,150.527298 827.486633,151.428238 824.381104,150.607529 
	C818.651306,149.093323 814.761353,150.603714 813.334717,156.071945 
	C810.319214,167.630096 808.083374,179.397690 805.747192,191.123093 
	C805.106812,194.336975 807.393799,194.105453 809.793762,193.123840 
	C810.035278,192.827362 810.009460,192.880859 810.009460,192.880859 
M801.611328,178.865051 
	C802.473511,176.238525 803.335632,173.612000 804.169678,171.071060 
	C797.980591,168.072052 793.438049,168.005386 791.197083,172.119781 
	C788.412842,177.231705 786.944336,183.094971 785.254578,188.737640 
	C784.935852,189.802155 785.911316,191.980667 786.893494,192.497604 
	C787.817200,192.983749 790.007385,192.391846 790.829102,191.514465 
	C794.443726,187.654907 797.764648,183.520309 801.611328,178.865051 
M800.309143,186.056580 
	C800.405396,185.574249 800.501648,185.091919 800.597961,184.609634 
	C800.309082,184.946350 800.020203,185.283066 800.309143,186.056580 
z"/>
<path fill="#AC7A2D" opacity="1.000000" stroke="none" 
	d="
M713.063110,176.117218 
	C720.725830,166.911118 729.459961,163.883148 739.376648,166.956512 
	C737.676758,175.740387 735.968018,184.569885 734.039856,194.533203 
	C737.406555,193.467270 739.358093,192.849380 741.309631,192.231491 
	C738.861389,195.425308 735.643677,197.921097 731.703918,196.761810 
	C726.332886,195.181396 730.158875,190.145737 728.708252,186.044052 
	C726.736816,188.238174 725.122803,190.130249 723.407166,191.925110 
	C718.949707,196.588226 714.488770,198.146896 711.196228,196.267517 
	C708.050415,194.471909 707.152344,189.465820 709.253784,183.488785 
	C710.123535,181.014709 711.641968,178.768677 713.063110,176.117218 
M714.220215,187.558380 
	C714.490234,190.480316 714.404297,195.061127 718.904419,192.002197 
	C726.263733,186.999786 731.815674,180.229309 732.938110,170.855148 
	C725.206482,167.407104 720.861755,168.757767 717.682739,175.877792 
	C716.144409,179.323029 715.388367,183.117554 714.220215,187.558380 
M728.892151,184.884537 
	C728.993225,185.251083 729.094299,185.617615 729.195435,185.984161 
	C729.250122,185.442291 729.304810,184.900421 728.892151,184.884537 
z"/>
<path fill="#AC7A2D" opacity="1.000000" stroke="none" 
	d="
M624.372070,192.322433 
	C623.309143,193.592850 622.071045,195.015274 620.510254,195.775192 
	C614.303223,198.797409 611.508118,196.769150 612.063110,189.856903 
	C612.140747,188.889862 612.073914,187.911209 612.073914,185.652954 
	C610.004639,187.955078 608.580444,189.541748 607.153870,191.126190 
	C602.258667,196.562943 597.318604,198.396454 593.844543,196.067352 
	C590.751831,193.993927 590.272766,188.157516 592.703125,182.161011 
	C597.813232,169.552246 608.764893,163.728333 622.393860,166.777313 
	C620.700623,175.549927 618.998596,184.367950 617.057007,194.427353 
	C620.243896,193.398407 622.146179,192.784210 624.372070,192.322433 
M611.643555,182.029465 
	C613.291382,178.383224 614.939209,174.736984 616.684265,170.875610 
	C611.185242,168.643036 606.095093,167.367294 603.426575,171.919739 
	C600.425476,177.039352 598.626282,183.087830 597.430786,188.961533 
	C596.653259,192.781647 599.666992,194.215561 602.701599,191.648087 
	C605.838013,188.994568 608.386597,185.646362 611.643555,182.029465 
M611.892151,184.884537 
	C611.993225,185.251083 612.094299,185.617615 612.195374,185.984161 
	C612.250061,185.442291 612.304810,184.900421 611.892151,184.884537 
z"/>
<path fill="#AC7A2D" opacity="1.000000" stroke="none" 
	d="
M901.579834,179.354462 
	C902.171570,175.511566 902.671326,172.092712 903.207397,168.425964 
	C901.337219,168.146164 899.833252,167.921158 898.329285,167.696152 
	C898.299805,167.366959 898.270325,167.037781 898.240845,166.708603 
	C900.033142,166.325211 901.825439,165.941818 903.618530,165.552887 
	C908.994019,151.220871 916.313477,145.817932 928.801453,148.617645 
	C927.068420,149.332581 925.211792,150.864014 923.623413,150.623550 
	C916.053955,149.477615 913.233276,151.020508 911.258240,158.340866 
	C910.657654,160.567062 910.295715,162.857651 909.701172,165.710556 
	C913.026672,165.880066 916.013000,166.032303 918.999268,166.184540 
	C919.023132,166.706146 919.046936,167.227753 919.070740,167.749374 
	C915.926819,167.915268 912.782959,168.081161 909.232544,168.268509 
	C907.827332,176.477875 906.674683,184.687225 904.938965,192.771393 
	C903.974609,197.262497 902.587036,201.840805 900.422668,205.858490 
	C896.123352,213.838989 889.025513,216.955429 880.123169,215.818665 
	C879.948914,215.298752 879.774719,214.778839 879.600525,214.258926 
	C881.583557,213.719070 883.636902,212.544479 885.536865,212.754868 
	C892.004333,213.470963 895.458374,211.764679 896.908508,205.285965 
	C898.793762,196.863785 899.993286,188.288132 901.579834,179.354462 
z"/>
<path fill="#070502" opacity="1.000000" stroke="none" 
	d="
M388.969421,213.576172 
	C388.633331,213.717392 388.297272,213.858612 387.309082,213.900253 
	C385.831970,213.855774 385.007751,213.933029 384.181854,213.962219 
	C379.977386,214.110870 375.890564,213.321671 374.195801,209.085938 
	C372.361084,204.500412 375.976044,201.792419 378.960541,199.146500 
	C379.688873,198.500809 380.551636,197.852554 381.463074,197.592072 
	C388.371094,195.617844 392.533264,190.687576 395.991089,184.459076 
	C396.792877,193.664444 394.887299,202.556305 390.962738,211.045532 
	C390.962738,211.045532 390.978729,210.971954 390.711700,210.991180 
	C390.278961,211.359451 390.113251,211.708511 389.947540,212.057571 
	C389.947540,212.057571 389.974365,211.973038 389.648804,212.068268 
	C389.205292,212.634384 389.087372,213.105270 388.969421,213.576172 
z"/>
<path fill="#AC7A2D" opacity="1.000000" stroke="none" 
	d="
M1108.407837,195.658005 
	C1101.097534,198.299896 1098.832520,196.640915 1100.079834,189.421249 
	C1101.524170,181.060730 1103.055298,172.678162 1105.248413,164.492599 
	C1108.639160,151.837662 1117.595581,145.802200 1129.845947,147.450439 
	C1128.792847,150.380493 1127.410156,151.552887 1124.036499,150.582855 
	C1118.768921,149.068268 1114.786743,150.508286 1113.540527,155.368454 
	C1110.408203,167.582718 1108.092285,180.006668 1105.500244,192.357285 
	C1105.423096,192.724152 1105.917480,193.210968 1106.585083,194.473114 
	C1109.438232,192.579208 1112.176880,190.761215 1114.915527,188.943222 
	C1115.171143,189.259811 1115.426636,189.576385 1115.682129,189.892975 
	C1113.368408,191.752411 1111.054565,193.611847 1108.407837,195.658005 
z"/>
<path fill="#AD7B2E" opacity="1.000000" stroke="none" 
	d="
M1005.056885,197.016449 
	C998.226196,195.932693 995.576782,192.855591 995.712891,186.646072 
	C995.895508,178.312607 1002.770630,169.149246 1010.710144,166.673615 
	C1013.861023,165.691147 1017.138306,165.090622 1019.282410,168.307434 
	C1021.489929,171.619431 1021.097412,175.642197 1018.217773,177.870453 
	C1014.416504,180.811813 1009.731018,182.629852 1005.362122,184.803070 
	C1004.388367,185.287430 1003.150330,185.240295 1002.005005,185.442978 
	C1001.626343,189.439346 1002.131042,193.205734 1006.532104,193.699188 
	C1009.786011,194.064041 1013.221497,192.809769 1016.946594,193.424194 
	C1013.121399,194.621246 1009.296143,195.818283 1005.056885,197.016449 
M1013.283691,169.261765 
	C1006.830688,169.508713 1001.918213,175.741943 1002.647583,182.757477 
	C1013.030518,181.480621 1016.972839,176.931320 1013.283691,169.261765 
z"/>
<path fill="#AD7B2E" opacity="1.000000" stroke="none" 
	d="
M453.820618,173.872620 
	C457.246613,171.294235 460.249023,168.631378 463.694366,166.803131 
	C466.551575,165.286987 470.060059,165.062515 472.242950,168.252808 
	C474.499176,171.550339 474.119080,175.585495 471.252655,177.823746 
	C467.463043,180.782898 462.772980,182.608917 458.405090,184.792206 
	C457.431000,185.279083 456.187042,185.226074 455.023499,185.429276 
	C454.608215,189.419342 455.114838,193.178696 459.502136,193.690857 
	C462.764557,194.071686 466.218201,192.814560 469.586700,192.286972 
	C469.722656,192.788773 469.858582,193.290573 469.994537,193.792374 
	C465.490936,194.852829 461.005798,196.650528 456.478455,196.764099 
	C452.047607,196.875259 449.402710,193.486481 448.854279,188.959015 
	C448.170959,183.318130 450.188873,178.503906 453.820618,173.872620 
M467.983490,175.018448 
	C468.071533,169.455490 466.379059,167.831848 462.460876,169.720383 
	C458.399658,171.677856 455.141052,177.915680 455.680878,183.058167 
	C460.611694,182.024216 465.488098,181.139450 467.983490,175.018448 
z"/>
<path fill="#AD7B2E" opacity="1.000000" stroke="none" 
	d="
M1068.739746,192.112335 
	C1065.966797,181.446487 1072.649170,169.423508 1083.001831,166.772003 
	C1085.461792,166.141983 1090.078735,166.769867 1090.831909,168.265427 
	C1092.059448,170.702820 1092.056641,175.167480 1090.514038,177.255234 
	C1088.319702,180.224915 1084.398315,182.077301 1080.945923,183.896805 
	C1078.981812,184.931992 1076.482300,184.951492 1074.256592,185.421417 
	C1073.530640,193.672974 1075.095215,194.416199 1088.434204,192.269348 
	C1082.374878,198.521118 1073.865601,198.601852 1068.739746,192.112335 
M1085.181396,178.477921 
	C1085.747559,177.480026 1086.805054,176.468079 1086.776978,175.487137 
	C1086.719971,173.492508 1086.076782,171.514648 1085.675171,169.529877 
	C1083.715576,169.966736 1081.302856,169.830566 1079.884521,170.952026 
	C1076.199707,173.865387 1074.315430,177.915924 1073.970947,184.087799 
	C1078.242676,182.069473 1081.449219,180.554398 1085.181396,178.477921 
z"/>
<path fill="#AD7B2E" opacity="1.000000" stroke="none" 
	d="
M1273.417847,172.779602 
	C1271.048340,182.625122 1263.048828,183.800964 1255.370850,185.405823 
	C1254.276611,193.657593 1256.558105,194.765289 1269.302246,192.207260 
	C1265.717896,196.427277 1257.849121,198.316544 1253.495361,196.002426 
	C1249.213623,193.726547 1247.405029,188.511444 1249.341675,182.369659 
	C1251.770142,174.668533 1256.514648,168.847672 1264.545654,166.460739 
	C1269.921997,164.862823 1272.434448,166.673370 1273.417847,172.779602 
M1256.698242,176.396545 
	C1256.086182,178.461090 1255.473999,180.525635 1254.612427,183.431320 
	C1257.659058,182.605621 1259.918579,182.572433 1261.367065,181.471802 
	C1263.850220,179.584808 1266.226685,177.273056 1267.822144,174.639343 
	C1268.476562,173.558945 1267.479492,170.612305 1266.300781,169.587646 
	C1265.496460,168.888428 1262.718140,169.564545 1261.463989,170.492737 
	C1259.675415,171.816284 1258.474487,173.934052 1256.698242,176.396545 
z"/>
<path fill="#AD7B2E" opacity="1.000000" stroke="none" 
	d="
M546.993530,195.979797 
	C554.240173,191.144669 554.653320,186.260864 548.283020,180.355576 
	C545.962158,178.204117 543.512695,176.187607 541.247375,173.980774 
	C536.460144,169.317139 536.483521,163.448975 541.204956,158.662155 
	C546.354065,153.441742 553.495544,152.566269 561.906128,156.360291 
	C561.489197,158.433365 561.053223,160.601059 560.617249,162.768753 
	C558.393494,158.316605 555.428101,155.187057 550.610840,156.219376 
	C547.877808,156.805038 544.461304,158.756744 543.366760,161.053207 
	C542.418640,163.042435 543.745056,166.716202 545.104858,169.036636 
	C546.471497,171.368607 549.096130,172.976852 551.212646,174.853577 
	C561.067871,183.592316 559.870789,191.073578 547.341675,196.571579 
	C546.992188,196.384460 546.993530,195.979797 546.993530,195.979797 
z"/>
<path fill="#B07C2E" opacity="1.000000" stroke="none" 
	d="
M1334.547119,162.747314 
	C1335.083130,164.079422 1335.597534,165.717560 1336.357056,165.840393 
	C1338.607422,166.204346 1340.954590,165.970642 1343.264038,165.970642 
	C1343.330322,166.405899 1343.396606,166.841156 1343.462891,167.276428 
	C1341.989136,167.526306 1340.463989,168.150620 1339.051392,167.956299 
	C1334.703369,167.358200 1332.822021,169.004440 1332.333862,173.419510 
	C1331.787598,178.360504 1330.385986,183.201340 1329.576660,188.121964 
	C1329.297852,189.817459 1329.681274,191.621811 1329.762207,193.376434 
	C1331.617920,193.112030 1333.501343,192.965164 1335.318481,192.537643 
	C1336.350952,192.294739 1337.275269,191.592484 1338.818848,191.943359 
	C1337.194336,193.130539 1335.722412,194.882385 1333.909424,195.372314 
	C1331.202881,196.103790 1327.658081,196.992935 1325.608521,195.821976 
	C1324.081543,194.949707 1323.641846,190.829391 1323.968628,188.318390 
	C1324.824951,181.740601 1326.366089,175.251999 1327.687866,168.452759 
	C1325.844604,168.175217 1324.116943,167.915100 1321.600220,167.536179 
	C1323.078857,166.809952 1323.943726,165.992722 1324.705811,166.079361 
	C1327.856567,166.437454 1328.861938,164.728867 1329.009644,162.055649 
	C1329.213135,158.368729 1331.276978,156.759583 1335.485229,156.677902 
	C1335.192749,158.638321 1334.915039,160.499557 1334.547119,162.747314 
z"/>
<path fill="#B07C2E" opacity="1.000000" stroke="none" 
	d="
M570.588379,196.788483 
	C569.369812,194.192825 567.595215,191.603363 567.871277,189.254944 
	C568.683899,182.342010 570.309753,175.524628 571.664917,168.420258 
	C569.844299,168.165939 568.123047,167.925507 565.443420,167.551193 
	C567.116150,166.772263 567.990662,165.981796 568.759644,166.073715 
	C571.969788,166.457428 572.856262,164.619522 573.015808,162.002243 
	C573.241577,158.297791 575.338806,156.739624 579.471924,156.695541 
	C579.036194,159.638672 578.614197,162.489395 578.131165,165.751877 
	C581.351501,165.903397 584.393738,166.046524 587.436035,166.189651 
	C587.472656,166.564621 587.509338,166.939575 587.545959,167.314529 
	C586.124451,167.552689 584.631897,168.192886 583.294250,167.956436 
	C578.582214,167.123459 576.836060,169.232773 576.291016,173.672302 
	C575.705017,178.446671 574.371277,183.125076 573.635559,187.887344 
	C573.353027,189.716095 573.820435,191.660706 573.946167,193.552536 
	C575.815125,193.186462 577.706299,192.904572 579.543518,192.418503 
	C580.452087,192.178085 581.261169,191.561386 582.361816,191.607666 
	C579.396851,195.047760 575.862366,197.344772 570.588379,196.788483 
z"/>
<path fill="#AD7A2E" opacity="1.000000" stroke="none" 
	d="
M395.684631,184.624329 
	C392.533264,190.687576 388.371094,195.617844 381.463074,197.592072 
	C380.551636,197.852554 379.688873,198.500809 378.960541,199.146500 
	C375.976044,201.792419 372.361084,204.500412 374.195801,209.085938 
	C375.890564,213.321671 379.977386,214.110870 384.181854,213.962219 
	C385.007751,213.933029 385.831970,213.855774 387.123779,213.891296 
	C383.130981,216.560760 378.432495,216.708694 373.695496,215.056488 
	C368.015839,213.075485 366.613678,208.411667 370.460327,203.747253 
	C372.438202,201.348984 375.056061,199.478500 377.412903,197.343933 
	C373.172424,189.317169 375.588165,178.288925 387.346741,169.680405 
	C388.005524,169.972275 388.147369,170.148895 388.114624,170.614487 
	C385.671875,176.526199 383.213013,182.084518 381.276733,187.819290 
	C380.821991,189.166107 381.894348,192.367783 382.681152,192.516983 
	C384.340973,192.831711 386.685211,192.173035 388.010986,191.046005 
	C390.512756,188.919205 392.493439,186.179413 394.938171,183.927917 
	C395.351990,184.315750 395.518311,184.470047 395.684631,184.624329 
z"/>
<path fill="#AC7A2D" opacity="1.000000" stroke="none" 
	d="
M486.318268,177.138016 
	C486.770782,173.280014 489.434784,168.747314 482.296173,168.822098 
	C482.355286,168.345963 482.414398,167.869827 482.473511,167.393692 
	C485.374359,167.148254 490.516968,166.057327 490.797150,166.800293 
	C492.184113,170.477646 492.286285,174.639557 492.812256,178.421051 
	C497.331757,173.702896 500.505676,165.145462 510.780853,166.240555 
	C509.691376,169.577820 509.041321,172.062119 504.798248,171.250320 
	C503.287170,170.961212 500.988037,172.455322 499.695312,173.770889 
	C494.530426,179.026947 490.047089,184.717072 488.870514,192.404175 
	C488.156372,197.069855 487.648590,197.205139 482.251099,196.479767 
	C483.574280,190.161713 484.894806,183.856430 486.318268,177.138016 
z"/>
<path fill="#AC7A2D" opacity="1.000000" stroke="none" 
	d="
M764.082153,174.082642 
	C768.009888,169.589615 771.613159,165.143341 778.717346,166.318008 
	C777.688477,169.519684 777.185120,172.117294 772.868347,171.249084 
	C771.364441,170.946594 769.048279,172.406326 767.759460,173.710114 
	C762.593750,178.935486 758.083130,184.586121 756.898071,192.255386 
	C756.157532,197.047775 755.822510,197.090668 750.226196,196.585022 
	C751.768250,189.320908 753.374390,182.108215 754.804077,174.860718 
	C755.453613,171.568146 755.883667,168.116714 750.209351,169.038574 
	C750.278564,168.525711 750.347778,168.012833 750.416992,167.499954 
	C753.295898,167.191040 758.404907,166.014008 758.679321,166.718903 
	C760.096008,170.358475 760.274536,174.480042 760.884949,178.433563 
	C761.542358,177.543503 762.713013,175.958450 764.082153,174.082642 
z"/>
<path fill="#AD7A2E" opacity="1.000000" stroke="none" 
	d="
M391.261932,211.297821 
	C394.887299,202.556305 396.792877,193.664444 395.991089,184.459076 
	C395.518311,184.470047 395.351990,184.315750 395.052216,183.598297 
	C395.759491,181.620560 396.968445,180.300278 397.360046,178.770721 
	C398.056580,176.050232 398.258179,173.203033 398.666809,170.408829 
	C395.671844,170.211380 392.678070,169.988907 389.680573,169.843231 
	C389.225677,169.821121 388.753448,170.155838 388.289215,170.325500 
	C388.147369,170.148895 388.005524,169.972275 387.654297,169.527893 
	C393.052368,165.352325 399.227386,165.629532 406.035065,166.431168 
	C404.192688,176.451187 402.456360,186.030640 400.663025,195.599365 
	C399.472229,201.952942 397.386505,207.826614 391.261932,211.297821 
z"/>
<path fill="#A9782D" opacity="1.000000" stroke="none" 
	d="
M835.358887,184.978668 
	C836.359131,191.201385 832.932556,195.640121 825.973999,196.651993 
	C822.698547,197.128311 819.233154,196.298431 814.595764,195.971832 
	C816.451721,193.639801 817.391846,192.458527 818.073669,191.601822 
	C821.076599,192.482452 823.572021,193.703369 826.103577,193.783310 
	C827.768738,193.835876 830.097656,192.633514 830.975891,191.257156 
	C831.617310,190.251953 830.737122,187.831375 829.890381,186.431870 
	C828.793091,184.618286 827.033875,183.211197 825.596252,181.596481 
	C820.286621,175.632629 821.657288,169.596481 829.319763,167.039597 
	C832.406494,166.009598 835.956482,166.367996 840.166626,166.023209 
	C839.534607,169.461319 839.137939,171.619141 838.734802,173.812332 
	C837.971802,173.641281 837.569153,173.676132 837.408142,173.495544 
	C835.810913,171.703934 834.558533,169.168610 832.575256,168.314941 
	C831.307617,167.769302 827.423218,169.682861 827.416809,170.514664 
	C827.398560,172.888260 828.424194,175.471588 829.672546,177.601074 
	C831.165466,180.147644 833.314087,182.309799 835.358887,184.978668 
z"/>
<path fill="#AD782F" opacity="1.000000" stroke="none" 
	d="
M189.732605,97.496094 
	C190.048157,136.989868 190.029480,176.429062 190.017059,216.322449 
	C189.238983,215.323532 187.774170,213.872345 187.770004,212.416977 
	C187.669754,177.474731 187.681015,142.531876 187.825043,107.589745 
	C187.838989,104.204887 188.850113,100.824150 189.732605,97.496094 
z"/>
<path fill="#AD7A2E" opacity="1.000000" stroke="none" 
	d="
M1243.774780,192.548096 
	C1243.547729,192.789383 1243.363647,193.161499 1243.087402,193.252121 
	C1239.645752,194.380768 1235.536865,197.182037 1232.890137,196.171753 
	C1228.751587,194.591980 1231.213867,189.867126 1231.791626,186.428818 
	C1232.680176,181.140854 1233.701050,175.875168 1234.798340,169.874710 
	C1228.666504,170.514740 1226.648438,174.559418 1223.323242,177.884064 
	C1222.399658,178.006836 1222.121460,177.966492 1221.843384,177.926163 
	C1224.833740,174.443192 1227.516357,170.602264 1230.957275,167.643219 
	C1232.456055,166.354340 1236.069336,165.912399 1237.696045,166.855652 
	C1239.202881,167.729446 1240.121094,171.036484 1239.923950,173.143356 
	C1239.478882,177.900818 1238.122681,182.567566 1237.265015,187.294403 
	C1236.893921,189.338501 1236.838501,191.439896 1236.538086,194.578125 
	C1239.028931,193.473663 1240.592896,192.780197 1242.734863,192.146362 
	C1243.466675,192.320023 1243.620728,192.434067 1243.774780,192.548096 
z"/>
<path fill="#AD7B2E" opacity="1.000000" stroke="none" 
	d="
M1221.466553,177.812042 
	C1222.121460,177.966492 1222.399658,178.006836 1223.095215,178.107971 
	C1221.399780,182.991364 1218.755615,187.664688 1217.345459,192.684662 
	C1216.254028,196.569962 1214.587769,197.089294 1211.151978,195.898758 
	C1212.726196,187.453964 1214.288818,179.071777 1215.851440,170.689606 
	C1215.182129,170.260803 1214.512695,169.832001 1213.843384,169.403198 
	C1211.050659,172.123230 1208.257812,174.843262 1205.024170,177.611023 
	C1204.358398,177.439255 1204.155762,177.201050 1203.974976,176.944168 
	C1206.951782,173.682175 1209.683594,170.129822 1213.029907,167.305893 
	C1214.308228,166.227249 1217.664673,165.945190 1218.866211,166.869812 
	C1220.322144,167.990128 1220.713989,170.727921 1221.156738,172.851227 
	C1221.478638,174.395004 1221.136108,176.077347 1221.466553,177.812042 
z"/>
<path fill="#AD7A2E" opacity="1.000000" stroke="none" 
	d="
M367.976929,167.546585 
	C366.218903,176.411636 364.421539,184.886337 362.624207,193.361038 
	C363.144196,193.636307 363.664154,193.911560 364.184143,194.186813 
	C366.264313,193.207352 368.344482,192.227875 370.424652,191.248398 
	C370.598480,191.504868 370.772308,191.761337 370.946136,192.017822 
	C369.192413,193.319290 367.605896,195.086578 365.638489,195.792709 
	C363.624390,196.515625 360.613861,197.080765 359.196198,196.078613 
	C357.891785,195.156555 357.578339,192.001740 357.795166,189.931793 
	C358.244080,185.646530 359.392944,181.438766 360.148712,177.180435 
	C361.239838,171.032440 361.061005,170.864716 355.055817,171.276215 
	C354.957520,170.788986 354.859222,170.301758 354.760925,169.814514 
	C359.153168,168.928421 363.545410,168.042328 367.976929,167.546585 
z"/>
<path fill="#AD7B2E" opacity="1.000000" stroke="none" 
	d="
M1299.881226,169.828445 
	C1301.044922,168.916977 1302.088867,167.535599 1303.399780,167.201050 
	C1305.514404,166.661423 1308.367920,165.948074 1309.858765,166.919846 
	C1311.269287,167.839310 1312.063110,170.917236 1311.837036,172.898499 
	C1311.256226,177.988022 1309.923828,182.989120 1308.968506,188.040054 
	C1308.643188,189.759888 1308.546265,191.522919 1308.287842,193.762207 
	C1310.465576,193.563492 1311.999023,193.423553 1313.532471,193.283630 
	C1313.652588,193.510544 1313.772583,193.737457 1313.892700,193.964386 
	C1312.283813,194.860001 1310.764893,196.024612 1309.048340,196.598465 
	C1304.711548,198.048386 1302.047485,195.993790 1302.725464,191.498779 
	C1303.590210,185.765610 1305.008179,180.118103 1306.029175,174.405334 
	C1306.605103,171.181931 1306.137451,168.760269 1301.341553,170.858490 
	C1300.449463,170.462265 1300.165405,170.145340 1299.881226,169.828445 
z"/>
<path fill="#AD7B2E" opacity="1.000000" stroke="none" 
	d="
M649.881042,169.828644 
	C651.044739,168.917130 652.088562,167.535690 653.399536,167.201141 
	C655.514221,166.661469 658.367554,165.948166 659.858582,166.919846 
	C661.269165,167.839157 662.063171,170.917130 661.837158,172.898361 
	C661.256470,177.987915 659.923889,182.989044 658.968323,188.039963 
	C658.643433,189.757416 658.546875,191.518066 658.287842,193.762131 
	C660.465454,193.563446 661.998901,193.423538 663.532349,193.283630 
	C663.652466,193.510529 663.772522,193.737427 663.892639,193.964340 
	C662.283813,194.859955 660.764832,196.024567 659.048462,196.598419 
	C654.711670,198.048340 652.047607,195.993774 652.725586,191.498871 
	C653.590271,185.765640 655.008057,180.118073 656.029114,174.405289 
	C656.605286,171.181503 656.137146,168.760422 651.341431,170.858551 
	C650.449341,170.462387 650.165161,170.145508 649.881042,169.828644 
z"/>
<path fill="#AD7A2E" opacity="1.000000" stroke="none" 
	d="
M1203.707764,177.134872 
	C1204.155762,177.201050 1204.358398,177.439255 1204.758789,177.814636 
	C1202.659180,183.234299 1200.603516,188.611282 1197.979248,193.694794 
	C1197.161377,195.279160 1194.806396,196.070038 1193.155151,197.224182 
	C1192.773560,196.787476 1192.392090,196.350754 1192.010498,195.914047 
	C1193.799316,187.138367 1195.588135,178.362686 1197.633545,168.327530 
	C1194.010864,169.607239 1191.945068,170.336960 1189.879272,171.066681 
	C1189.760010,170.884018 1189.640869,170.701340 1189.521729,170.518677 
	C1190.412842,169.790054 1191.200195,168.683380 1192.214966,168.404709 
	C1195.103760,167.611282 1198.085327,167.155304 1201.030396,166.566544 
	C1201.391602,169.340881 1201.507690,172.187439 1202.288086,174.838379 
	C1202.481323,175.494629 1199.073242,178.650894 1203.707764,177.134872 
z"/>
<path fill="#AE7C2E" opacity="1.000000" stroke="none" 
	d="
M1046.012573,191.027985 
	C1044.059692,193.113251 1042.106812,195.198547 1040.153931,197.283829 
	C1039.743164,197.087463 1039.332520,196.891083 1038.921753,196.694717 
	C1038.728882,193.143951 1038.631714,189.584564 1038.311768,186.045288 
	C1038.073608,183.409439 1037.683105,180.770065 1037.120239,178.184570 
	C1036.022217,173.140579 1033.975464,168.996689 1027.358887,169.941727 
	C1033.128662,164.066040 1038.981812,164.829681 1041.272095,172.061172 
	C1043.046997,177.664825 1043.319824,183.744186 1044.819824,189.965729 
	C1045.610352,190.537689 1045.821411,190.773895 1046.012573,191.027985 
z"/>
<path fill="#AE7C2E" opacity="1.000000" stroke="none" 
	d="
M1292.231934,182.065247 
	C1290.495972,186.836212 1288.759888,191.607147 1286.905884,196.702271 
	C1285.612183,196.702271 1283.881348,196.702271 1281.931152,196.702271 
	C1283.785767,187.524536 1285.573486,178.677689 1287.621582,168.541672 
	C1284.115356,169.646484 1281.941040,170.331543 1279.535645,171.089493 
	C1279.723022,170.482712 1279.720459,170.126160 1279.883179,170.017975 
	C1283.288086,167.754654 1286.899292,163.971313 1291.006226,166.827835 
	C1295.052002,169.641815 1291.776978,174.165741 1291.264893,178.657745 
	C1291.434814,180.267807 1291.833374,181.166534 1292.231934,182.065247 
z"/>
<path fill="#AE7C2E" opacity="1.000000" stroke="none" 
	d="
M642.232056,182.065155 
	C640.495667,186.836807 638.759338,191.608459 636.905701,196.702362 
	C635.612366,196.702362 633.881592,196.702362 631.931335,196.702362 
	C633.786133,187.524765 635.574097,178.677979 637.622620,168.541794 
	C634.115906,169.646393 631.937500,170.332581 629.535889,171.089066 
	C629.722961,170.482758 629.720398,170.126190 629.882935,170.018143 
	C633.287964,167.754852 636.898987,163.971466 641.005981,166.827774 
	C645.051941,169.641647 641.777039,174.165543 641.264771,178.657562 
	C641.434753,180.267670 641.833435,181.166412 642.232056,182.065155 
z"/>
<path fill="#AE7C2E" opacity="1.000000" stroke="none" 
	d="
M1130.863159,167.601181 
	C1134.982666,165.553482 1139.099365,164.931564 1142.965088,168.064285 
	C1147.084961,171.402969 1146.878540,176.028870 1145.765625,180.426697 
	C1143.957764,187.571381 1139.395020,192.673126 1132.333740,195.579742 
	C1131.978027,195.354584 1131.960083,194.857132 1132.182861,194.611053 
	C1139.157104,189.541626 1140.460938,182.531998 1139.969971,174.945099 
	C1139.584106,168.985382 1136.890015,167.275314 1130.960938,168.535431 
	C1130.906738,168.016388 1130.885010,167.808777 1130.863159,167.601181 
z"/>
<path fill="#AE7C2E" opacity="1.000000" stroke="none" 
	d="
M876.863403,167.600754 
	C880.982971,165.553818 885.099548,164.931473 888.965332,168.064529 
	C893.085022,171.403412 892.878601,176.029099 891.765625,180.426956 
	C889.957642,187.571625 885.394775,192.673172 878.333374,195.579773 
	C877.977600,195.354630 877.959900,194.857208 878.182739,194.611130 
	C885.157349,189.541763 886.460876,182.531830 885.969910,174.944962 
	C885.584229,168.985291 882.889893,167.275223 876.960876,168.535431 
	C876.906860,168.016144 876.885132,167.808441 876.863403,167.600754 
z"/>
<path fill="#AF7C2E" opacity="1.000000" stroke="none" 
	d="
M876.521362,167.700562 
	C876.885132,167.808441 876.906860,168.016144 876.738708,168.799103 
	C871.227234,174.442978 869.531006,180.825623 870.021057,187.906174 
	C870.404480,193.447525 872.230774,194.949203 877.959900,194.857208 
	C877.959900,194.857208 877.977600,195.354630 877.986816,195.603333 
	C868.444519,198.962616 862.519775,194.198410 863.991150,184.312943 
	C865.114258,176.767929 869.628540,171.469559 876.521362,167.700562 
z"/>
<path fill="#AF7C2E" opacity="1.000000" stroke="none" 
	d="
M1130.521118,167.700882 
	C1130.885010,167.808777 1130.906738,168.016388 1130.738770,168.799103 
	C1125.227295,174.442795 1123.530884,180.825500 1124.020996,187.906174 
	C1124.404419,193.447525 1126.230835,194.949295 1131.960083,194.857132 
	C1131.960083,194.857132 1131.978027,195.354584 1131.987061,195.603302 
	C1122.444702,198.962540 1116.520020,194.198349 1117.991333,184.313156 
	C1119.114258,176.768204 1123.628296,171.469757 1130.521118,167.700882 
z"/>
<path fill="#A9782D" opacity="1.000000" stroke="none" 
	d="
M1046.304443,190.865997 
	C1045.821411,190.773895 1045.610352,190.537689 1045.199097,190.164307 
	C1047.897827,186.154053 1051.205811,182.536682 1053.517578,178.367004 
	C1055.310547,175.132843 1055.859009,171.208771 1056.960693,167.591385 
	C1056.563477,167.189301 1056.166138,166.787216 1055.768799,166.385132 
	C1057.545654,166.548676 1060.632202,166.284286 1060.851807,166.956558 
	C1061.494385,168.923309 1061.856934,171.897964 1060.791382,173.346390 
	C1056.367798,179.358994 1051.378174,184.955048 1046.304443,190.865997 
z"/>
<path fill="#A9782D" opacity="1.000000" stroke="none" 
	d="
M312.667938,156.335510 
	C313.013611,156.285141 313.022736,156.673584 313.017914,156.867828 
	C308.863037,159.539780 306.136963,162.874619 305.121399,167.837845 
	C304.763214,169.588531 302.454834,170.940170 300.436279,173.123703 
	C300.029388,164.433121 303.752716,159.650101 312.667938,156.335510 
z"/>
<path fill="#A4742B" opacity="1.000000" stroke="none" 
	d="
M953.647705,156.170410 
	C954.024536,156.348328 954.034180,156.531357 954.050720,156.989288 
	C949.651611,159.259186 946.229980,161.885681 945.374329,167.231827 
	C945.128662,168.766510 942.625183,169.939804 940.717896,171.679153 
	C940.355042,163.660995 944.268616,159.142059 953.647705,156.170410 
z"/>
<path fill="#B07C2E" opacity="1.000000" stroke="none" 
	d="
M546.570801,195.940735 
	C546.993530,195.979797 546.992188,196.384460 546.993835,196.586792 
	C541.295532,198.901871 535.750183,198.278412 529.195740,195.757156 
	C530.777649,194.169937 531.850952,193.093079 532.924194,192.016220 
	C533.054260,192.494003 533.184326,192.971786 533.314392,193.449585 
	C537.592285,194.266937 541.870117,195.084290 546.570801,195.940735 
z"/>
<path fill="#A9782D" opacity="1.000000" stroke="none" 
	d="
M306.637238,194.272812 
	C307.034698,194.429977 307.056732,194.653122 307.104431,195.211700 
	C300.359528,197.872894 297.533630,197.707855 291.599731,194.414719 
	C292.725830,193.199966 293.768860,192.074875 294.811859,190.949799 
	C294.846619,191.510071 294.881409,192.070343 294.916199,192.630615 
	C298.698059,193.199997 302.479950,193.769394 306.637238,194.272812 
z"/>
<path fill="#8E6526" opacity="1.000000" stroke="none" 
	d="
M642.505920,181.885178 
	C641.833435,181.166412 641.434753,180.267670 641.132568,178.988312 
	C643.910461,175.778793 646.591858,172.949890 649.577148,169.974823 
	C650.165161,170.145508 650.449341,170.462387 650.984253,170.977600 
	C648.416626,174.685715 645.598206,178.195450 642.505920,181.885178 
z"/>
<path fill="#8E6526" opacity="1.000000" stroke="none" 
	d="
M1292.505859,181.885284 
	C1291.833374,181.166534 1291.434814,180.267807 1291.132690,178.988525 
	C1293.910522,175.778900 1296.591919,172.949860 1299.577393,169.974625 
	C1300.165405,170.145340 1300.449463,170.462265 1300.984375,170.977600 
	C1298.416626,174.685776 1295.598145,178.195557 1292.505859,181.885284 
z"/>
<path fill="#8E6526" opacity="1.000000" stroke="none" 
	d="
M370.894745,152.202377 
	C371.655029,157.364899 367.238647,157.269943 364.601318,159.124054 
	C364.183075,158.632629 363.764832,158.141190 363.346588,157.649765 
	C365.747772,155.846130 368.148987,154.042480 370.894745,152.202377 
z"/>
<path fill="#AD7A2E" opacity="1.000000" stroke="none" 
	d="
M1245.419922,190.685455 
	C1245.048584,190.516525 1244.961304,190.194427 1244.874023,189.872345 
	C1245.105225,189.823196 1245.336426,189.774033 1245.567627,189.724869 
	C1245.613037,189.994003 1245.658447,190.263153 1245.419922,190.685455 
z"/>
<path fill="#AC7A2D" opacity="1.000000" stroke="none" 
	d="
M810.049377,192.801224 
	C810.063477,192.775085 810.272034,192.913559 810.272034,192.913559 
	C810.272034,192.913559 809.993835,192.699905 810.001648,192.790375 
	C810.009460,192.880859 810.035278,192.827362 810.049377,192.801224 
z"/>
<path fill="#AC7A2D" opacity="1.000000" stroke="none" 
	d="
M701.049377,192.801224 
	C701.063477,192.775085 701.272034,192.913559 701.272034,192.913559 
	C701.272034,192.913559 700.993835,192.699905 701.001648,192.790375 
	C701.009460,192.880859 701.035278,192.827362 701.049377,192.801224 
z"/>
<path fill="#AD7A2E" opacity="1.000000" stroke="none" 
	d="
M1243.086670,192.028503 
	C1243.200806,191.591049 1243.540894,191.331085 1243.881104,191.071106 
	C1243.997925,191.395905 1244.114746,191.720718 1244.003174,192.296814 
	C1243.620728,192.434067 1243.466675,192.320023 1243.086670,192.028503 
z"/>
<path fill="#AD7A2E" opacity="1.000000" stroke="none" 
	d="
M390.320435,212.111938 
	C390.113251,211.708511 390.278961,211.359451 390.748810,210.984711 
	C390.933044,211.361450 390.813171,211.763885 390.320435,212.111938 
z"/>
<path fill="#AD7A2E" opacity="1.000000" stroke="none" 
	d="
M389.261353,213.362808 
	C389.087372,213.105270 389.205292,212.634384 389.689941,212.051666 
	C389.888855,212.343048 389.721069,212.746246 389.261353,213.362808 
z"/>
<path fill="#040301" opacity="1.000000" stroke="none" 
	d="
M968.977905,157.007355 
	C980.715637,158.156677 984.933228,163.537659 983.278870,174.698532 
	C981.149475,189.064484 973.265320,195.298782 958.924194,193.879105 
	C956.501587,193.639282 954.105225,193.133774 950.866882,192.619141 
	C962.372864,184.493301 960.538025,171.717422 963.606140,160.855057 
	C964.466553,157.808868 965.526978,156.553574 968.977905,157.007355 
z"/>
<path fill="#050301" opacity="1.000000" stroke="none" 
	d="
M1161.481445,187.798630 
	C1165.507324,182.161942 1169.307495,176.814545 1173.440308,171.737930 
	C1174.238281,170.757690 1176.494141,170.276276 1177.779541,170.634460 
	C1178.573730,170.855728 1179.477905,173.281952 1179.173584,174.404083 
	C1177.723267,179.753586 1176.512695,185.346878 1173.881226,190.116714 
	C1172.693359,192.269974 1168.477173,193.383011 1165.486572,193.746307 
	C1162.009888,194.168686 1159.870483,192.170959 1161.481445,187.798630 
z"/>
<path fill="#060402" opacity="1.000000" stroke="none" 
	d="
M692.901855,169.771469 
	C693.437988,172.116409 694.562256,174.936218 693.606750,176.372162 
	C690.057739,181.705948 685.920654,186.666351 681.758301,191.557632 
	C681.013367,192.433075 678.725281,192.982529 677.830078,192.477158 
	C676.850647,191.924271 675.923157,189.749771 676.250305,188.668304 
	C677.954346,183.034119 679.513489,177.234528 682.217041,172.064529 
	C684.215820,168.242065 688.607544,168.493240 692.901855,169.771469 
z"/>
<path fill="#010000" opacity="1.000000" stroke="none" 
	d="
M690.784790,185.341858 
	C691.172546,185.071014 691.501709,185.152939 691.830933,185.234863 
	C691.462708,185.388123 691.094482,185.541382 690.784790,185.341858 
z"/>
<path fill="#060402" opacity="1.000000" stroke="none" 
	d="
M801.401672,179.175217 
	C797.764648,183.520309 794.443726,187.654907 790.829102,191.514465 
	C790.007385,192.391846 787.817200,192.983749 786.893494,192.497604 
	C785.911316,191.980667 784.935852,189.802155 785.254578,188.737640 
	C786.944336,183.094971 788.412842,177.231705 791.197083,172.119781 
	C793.438049,168.005386 797.980591,168.072052 804.169678,171.071060 
	C803.335632,173.612000 802.473511,176.238525 801.401672,179.175217 
z"/>
<path fill="#010000" opacity="1.000000" stroke="none" 
	d="
M800.020264,185.838181 
	C800.020203,185.283066 800.309082,184.946350 800.597900,184.609619 
	C800.501648,185.091919 800.405396,185.574249 800.020264,185.838181 
z"/>
<path fill="#060402" opacity="1.000000" stroke="none" 
	d="
M714.249146,187.156158 
	C715.388367,183.117554 716.144409,179.323029 717.682739,175.877792 
	C720.861755,168.757767 725.206482,167.407104 732.938110,170.855148 
	C731.815674,180.229309 726.263733,186.999786 718.904419,192.002197 
	C714.404297,195.061127 714.490234,190.480316 714.249146,187.156158 
z"/>
<path fill="#010000" opacity="1.000000" stroke="none" 
	d="
M729.125854,184.621552 
	C729.304810,184.900421 729.250122,185.442291 729.195435,185.984161 
	C729.094299,185.617615 728.993225,185.251083 729.125854,184.621552 
z"/>
<path fill="#060402" opacity="1.000000" stroke="none" 
	d="
M611.417969,182.315750 
	C608.386597,185.646362 605.838013,188.994568 602.701599,191.648087 
	C599.666992,194.215561 596.653259,192.781647 597.430786,188.961533 
	C598.626282,183.087830 600.425476,177.039352 603.426575,171.919739 
	C606.095093,167.367294 611.185242,168.643036 616.684265,170.875610 
	C614.939209,174.736984 613.291382,178.383224 611.417969,182.315750 
z"/>
<path fill="#010000" opacity="1.000000" stroke="none" 
	d="
M612.125854,184.621552 
	C612.304810,184.900421 612.250061,185.442291 612.195435,185.984161 
	C612.094299,185.617615 611.993225,185.251083 612.125854,184.621552 
z"/>
<path fill="#070502" opacity="1.000000" stroke="none" 
	d="
M1013.615601,169.489777 
	C1016.972839,176.931320 1013.030518,181.480621 1002.647583,182.757477 
	C1001.918213,175.741943 1006.830688,169.508713 1013.615601,169.489777 
z"/>
<path fill="#070502" opacity="1.000000" stroke="none" 
	d="
M467.897980,175.407486 
	C465.488098,181.139450 460.611694,182.024216 455.680878,183.058167 
	C455.141052,177.915680 458.399658,171.677856 462.460876,169.720383 
	C466.379059,167.831848 468.071533,169.455490 467.897980,175.407486 
z"/>
<path fill="#070502" opacity="1.000000" stroke="none" 
	d="
M1084.918579,178.758636 
	C1081.449219,180.554398 1078.242676,182.069473 1073.970947,184.087799 
	C1074.315430,177.915924 1076.199707,173.865387 1079.884521,170.952026 
	C1081.302856,169.830566 1083.715576,169.966736 1085.675171,169.529877 
	C1086.076782,171.514648 1086.719971,173.492508 1086.776978,175.487137 
	C1086.805054,176.468079 1085.747559,177.480026 1084.918579,178.758636 
z"/>
<path fill="#070502" opacity="1.000000" stroke="none" 
	d="
M1256.860352,176.054565 
	C1258.474487,173.934052 1259.675415,171.816284 1261.463989,170.492737 
	C1262.718140,169.564545 1265.496460,168.888428 1266.300781,169.587646 
	C1267.479492,170.612305 1268.476562,173.558945 1267.822144,174.639343 
	C1266.226685,177.273056 1263.850220,179.584808 1261.367065,181.471802 
	C1259.918579,182.572433 1257.659058,182.605621 1254.612427,183.431320 
	C1255.473999,180.525635 1256.086182,178.461090 1256.860352,176.054565 
z"/>
<path fill="#070502" opacity="1.000000" stroke="none" 
	d="
M388.114624,170.614487 
	C388.753448,170.155838 389.225677,169.821121 389.680573,169.843231 
	C392.678070,169.988907 395.671844,170.211380 398.666809,170.408829 
	C398.258179,173.203033 398.056580,176.050232 397.360046,178.770721 
	C396.968445,180.300278 395.759491,181.620560 394.804718,183.364746 
	C392.493439,186.179413 390.512756,188.919205 388.010986,191.046005 
	C386.685211,192.173035 384.340973,192.831711 382.681152,192.516983 
	C381.894348,192.367783 380.821991,189.166107 381.276733,187.819290 
	C383.213013,182.084518 385.671875,176.526199 388.114624,170.614487 
z"/>
<path fill="#050301" opacity="1.000000" stroke="none" 
	d="
M1132.182861,194.611053 
	C1126.230835,194.949295 1124.404419,193.447525 1124.020996,187.906174 
	C1123.530884,180.825500 1125.227295,174.442795 1130.771240,169.110535 
	C1136.890015,167.275314 1139.584106,168.985382 1139.969971,174.945099 
	C1140.460938,182.531998 1139.157104,189.541626 1132.182861,194.611053 
z"/>
<path fill="#050301" opacity="1.000000" stroke="none" 
	d="
M878.182739,194.611130 
	C872.230774,194.949203 870.404480,193.447525 870.021057,187.906174 
	C869.531006,180.825623 871.227234,174.442978 876.770996,169.110687 
	C882.889893,167.275223 885.584229,168.985291 885.969910,174.944962 
	C886.460876,182.531830 885.157349,189.541763 878.182739,194.611130 
z"/>
</svg>